<?xml version="1.0" encoding="UTF-8"?>
<svg width="196px" height="25px" viewBox="0 0 196 25" version="1.1" xmlns="http://www.w3.org/2000/svg" xmlns:xlink="http://www.w3.org/1999/xlink">
    <!-- Generator: Sketch 55.2 (78181) - https://sketchapp.com -->
    <title>Identity icon with text</title>
    <desc>Map marker icon with medical/clinical cross</desc>
    <g id="Identity---Treatment-Finder" stroke="none" stroke-width="1" fill="none" fill-rule="evenodd">
        <g id="Group-2">
            <text id="Treatment-Finder" font-family="HelveticaNeue-Bold, Helvetica Neue" font-size="21" font-weight="bold" fill="#1A202C">
                <tspan x="25" y="20">Treatment Finder</tspan>
            </text>
            <g id="Group" transform="translate(-0.000000, 0.000000)">
                <g id="map-marker-solid" fill="#73CEF0" fill-rule="nonzero">
                    <path d="M8.81207217,24.4955995 C1.37960379,14.2104946 0,13.1549284 0,9.37499771 C0,4.19731343 4.39718657,0 9.82142857,0 C15.2456706,0 19.6428571,4.19731343 19.6428571,9.37499771 C19.6428571,13.1549284 18.2632533,14.2104946 10.830785,24.4955995 C10.3430385,25.1681579 9.29976749,25.1681091 8.81207217,24.4955995 Z"></path>
                </g>
                <path d="M8.03571429,8.03571429 L8.03571429,4.96428571 C8.03571429,4.68814334 8.25957191,4.46428571 8.53571429,4.46428571 L11.1071429,4.46428571 C11.3832852,4.46428571 11.6071429,4.68814334 11.6071429,4.96428571 L11.6071429,8.03571429 L14.6785714,8.03571429 C14.9547138,8.03571429 15.1785714,8.25957191 15.1785714,8.53571429 L15.1785714,11.1071429 C15.1785714,11.3832852 14.9547138,11.6071429 14.6785714,11.6071429 L11.6071429,11.6071429 L11.6071429,14.6785714 C11.6071429,14.9547138 11.3832852,15.1785714 11.1071429,15.1785714 L8.53571429,15.1785714 C8.25957191,15.1785714 8.03571429,14.9547138 8.03571429,14.6785714 L8.03571429,11.6071429 L4.96428571,11.6071429 C4.68814334,11.6071429 4.46428571,11.3832852 4.46428571,11.1071429 L4.46428571,8.53571429 C4.46428571,8.25957191 4.68814334,8.03571429 4.96428571,8.03571429 L8.03571429,8.03571429 Z" fill="#FFFFFF"></path>
            </g>
        </g>
    </g>
</svg>