<?xml version="1.0" encoding="UTF-8"?>
<svg width="216px" height="25px" viewBox="0 0 216 25" version="1.1" xmlns="http://www.w3.org/2000/svg" xmlns:xlink="http://www.w3.org/1999/xlink">
    <!-- Generator: Sketch 57.1 (83088) - https://sketch.com -->
    <title>Group 3</title>
    <desc>Created with Sketch.</desc>
    <g id="Final-mockups" stroke="none" stroke-width="1" fill="none" fill-rule="evenodd">
        <g id="Option-B---revised" transform="translate(-10.000000, -72.000000)">
            <g id="Group-3" transform="translate(10.000000, 72.000000)">
                <text id="TreatmentFinder.gov" font-family="HelveticaNeue, Helvetica Neue" font-size="21" font-weight="normal" fill="#1A202C">
                    <tspan x="25" y="20">TreatmentFinder.gov</tspan>
                </text>
                <g id="Group">
                    <g id="map-marker-solid" fill="#73CEF0" fill-rule="nonzero">
                        <path d="M8.52367708,24.4955995 C1.33445313,14.2104946 0,13.1549284 0,9.37499771 C0,4.19731343 4.25327865,0 9.5,0 C14.7467214,0 19,4.19731343 19,9.37499771 C19,13.1549284 17.6655469,14.2104946 10.4763229,24.4955995 C10.0045391,25.1681579 8.99541146,25.1681091 8.52367708,24.4955995 Z" id="Path"></path>
                    </g>
                    <path d="M10.7272727,4.46428571 C11.0034151,4.46428571 11.2272727,4.68814334 11.2272727,4.96428571 L11.2271818,8.03528571 L14.1818182,8.03571429 C14.4579606,8.03571429 14.6818182,8.25957191 14.6818182,8.53571429 L14.6818182,11.1071429 C14.6818182,11.3832852 14.4579606,11.6071429 14.1818182,11.6071429 L11.2271818,11.6062857 L11.2272727,14.6785714 C11.2272727,14.9547138 11.0034151,15.1785714 10.7272727,15.1785714 L8.27272727,15.1785714 C7.9965849,15.1785714 7.77272727,14.9547138 7.77272727,14.6785714 L7.77218182,11.6062857 L4.81818182,11.6071429 C4.54203944,11.6071429 4.31818182,11.3832852 4.31818182,11.1071429 L4.31818182,8.53571429 C4.31818182,8.25957191 4.54203944,8.03571429 4.81818182,8.03571429 L7.77218182,8.03528571 L7.77272727,4.96428571 C7.77272727,4.68814334 7.9965849,4.46428571 8.27272727,4.46428571 L10.7272727,4.46428571 Z" id="icon-medical-cross" fill="#FFFFFF"></path>
                </g>
            </g>
        </g>
    </g>
</svg>