<?xml version="1.0" encoding="UTF-8" standalone="no"?>
<svg viewBox="0 0 57 57" width="57px" height="57px" version="1.1" xmlns="http://www.w3.org/2000/svg" xmlns:xlink="http://www.w3.org/1999/xlink">
	<defs></defs>
        <path d="M28.322,0.112 C28.387,0.361 28.1,0.256 28.007,0.4 C28.112,0.936 28.269,1.458 28.478,1.969 C28.57,1.942 28.557,1.836 28.609,1.771 C28.767,1.34 28.883,0.882 29.054,0.452 C29.08,0.19 28.623,0.4 28.767,0.099 C28.988,-0.005 29.289,0.099 29.563,0.061 C29.693,0.074 29.838,0.047 29.915,0.138 C29.981,0.491 29.537,0.23 29.485,0.518 C29.158,1.263 28.936,2.059 28.583,2.792 C28.492,2.87 28.322,2.843 28.19,2.83 L28.112,2.751 C27.852,1.981 27.643,1.182 27.329,0.438 C27.238,0.269 26.858,0.4 26.975,0.112 C27.29,0.021 27.682,0.112 28.007,0.033 C28.126,0.033 28.256,0.021 28.322,0.112"></path>
        <path d="M31.379,0.178 C31.446,0.204 31.457,0.294 31.418,0.361 C31.327,0.53 31.027,0.347 31.014,0.596 C30.988,1.263 30.869,1.889 30.869,2.556 C30.961,2.687 31.249,2.674 31.157,2.882 C30.752,2.974 30.334,2.856 29.915,2.843 C29.864,2.792 29.876,2.7 29.915,2.646 C30.034,2.556 30.23,2.646 30.295,2.477 C30.347,1.797 30.465,1.131 30.439,0.438 C30.347,0.334 30.178,0.414 30.125,0.256 C30.112,0.165 30.19,0.112 30.27,0.099 C30.634,0.125 30.999,0.178 31.379,0.178"></path>
        <path d="M34.189,0.647 C34.333,0.871 34.176,1.158 34.136,1.392 C34.097,1.444 34.019,1.458 33.967,1.432 C33.836,1.249 33.914,0.974 33.692,0.818 C33.47,0.622 33.079,0.609 32.805,0.713 C32.32,1.04 32.308,1.628 32.333,2.178 C32.412,2.504 32.673,2.804 33.013,2.882 C33.313,2.921 33.562,2.843 33.771,2.687 C33.836,2.674 33.901,2.7 33.901,2.765 C33.836,2.987 33.587,3.118 33.417,3.274 C32.805,3.379 32.164,3.196 31.85,2.646 C31.536,2.098 31.667,1.301 32.02,0.818 C32.347,0.386 32.843,0.281 33.366,0.361 C33.653,0.438 33.928,0.53 34.189,0.647"></path>
        <g id="Group-8" transform="translate(21.000000, 0.000000)">
            <path d="M2.747,1.04 C2.774,1.118 2.696,1.196 2.63,1.209 C2.383,1.171 2.355,0.661 2.003,0.896 C1.938,0.948 1.82,0.91 1.781,1.027 C1.781,1.275 1.859,1.484 1.898,1.706 C1.951,1.811 2.056,1.72 2.134,1.732 C2.251,1.628 2.186,1.315 2.434,1.419 L2.513,1.511 C2.513,1.786 2.605,2.059 2.605,2.321 C2.552,2.373 2.46,2.359 2.408,2.334 C2.33,2.203 2.251,1.981 2.043,2.086 C1.925,2.164 1.977,2.321 1.99,2.439 C2.068,2.595 2.015,2.817 2.147,2.948 C2.355,2.895 2.63,2.948 2.774,2.751 C2.801,2.595 2.813,2.425 2.944,2.334 C3.022,2.334 3.101,2.347 3.114,2.413 C3.062,2.674 3.193,3.027 2.983,3.196 C2.434,3.328 1.859,3.406 1.337,3.498 C1.297,3.51 1.258,3.457 1.258,3.432 C1.271,3.196 1.729,3.17 1.52,2.843 C1.388,2.269 1.337,1.667 1.206,1.105 C1.102,0.948 0.749,1.092 0.827,0.818 L0.944,0.752 C1.429,0.635 1.964,0.609 2.447,0.478 C2.708,0.518 2.644,0.844 2.747,1.04"></path>
            <path d="M4.825,1.458 C4.721,1.536 4.603,1.576 4.474,1.549 C4.355,1.38 4.355,1.171 4.342,0.962 C4.369,0.805 4.277,0.596 4.421,0.504 C4.617,0.478 4.812,0.518 4.891,0.713 C4.917,0.936 4.996,1.263 4.825,1.458 Z M6.29,2.779 C5.884,2.425 5.557,2.138 5.205,1.732 L5.192,1.628 C5.335,1.498 5.453,1.354 5.518,1.182 C5.57,0.974 5.57,0.701 5.453,0.518 C4.996,-0.214 4.108,0.4 3.415,0.294 L3.336,0.361 C3.245,0.635 3.598,0.53 3.715,0.647 C3.807,1.301 3.911,1.955 3.937,2.635 C3.886,2.779 3.715,2.751 3.623,2.843 C3.598,2.895 3.585,2.999 3.65,3.04 C4.081,3.079 4.474,2.935 4.904,2.921 C5.1,2.582 4.603,2.765 4.513,2.556 L4.433,1.929 C4.46,1.863 4.525,1.836 4.59,1.85 L5.505,2.779 C5.74,2.856 5.975,2.935 6.224,2.961 C6.302,2.948 6.316,2.843 6.29,2.779 Z"></path>
        </g>
        <path d="M36.476,1.223 C36.528,1.458 36.462,1.732 36.346,1.915 C36.253,1.942 36.188,1.877 36.15,1.811 C36.11,1.667 36.163,1.484 35.992,1.432 C35.861,1.406 35.718,1.288 35.601,1.38 C35.483,1.602 35.352,1.85 35.404,2.098 C35.483,2.138 35.575,2.164 35.652,2.138 C35.731,2.046 35.835,1.889 35.966,1.981 C36.045,2.046 35.966,2.124 35.966,2.203 L35.783,2.856 C35.731,2.921 35.652,2.935 35.575,2.908 C35.47,2.779 35.626,2.477 35.365,2.464 C35.143,2.45 35.222,2.687 35.143,2.792 C35.17,2.987 34.869,3.223 35.156,3.34 C35.392,3.365 35.692,3.535 35.849,3.223 C35.875,3.17 35.927,3.104 35.992,3.09 C36.071,3.09 36.15,3.131 36.163,3.223 C35.978,3.444 35.94,3.968 35.535,3.85 C35.065,3.693 34.568,3.589 34.084,3.457 C34.059,3.406 34.019,3.34 34.059,3.3 C34.176,3.157 34.424,3.314 34.477,3.104 C34.66,2.439 34.894,1.786 34.999,1.118 C34.934,1.013 34.712,1.04 34.765,0.844 C34.804,0.738 34.934,0.792 34.999,0.805 C35.483,0.962 36.005,1.04 36.476,1.223"></path>
        <path d="M21.174,1.615 C21.2,1.694 21.134,1.759 21.082,1.786 C20.821,1.811 20.885,1.458 20.638,1.419 C20.507,1.367 20.377,1.432 20.259,1.471 C20.116,1.576 20.103,1.745 20.142,1.902 C20.468,2.439 21.279,2.111 21.605,2.712 C21.761,2.974 21.749,3.34 21.566,3.575 C21.239,3.98 20.69,4.11 20.219,3.968 C20.063,3.785 19.985,3.535 19.985,3.3 C20.037,3.237 20.128,3.208 20.194,3.262 C20.285,3.471 20.507,3.719 20.769,3.706 C20.899,3.652 21.095,3.627 21.134,3.457 C21.134,3.262 21.174,3.053 20.978,2.935 C20.507,2.635 19.67,2.792 19.553,2.046 C19.515,1.745 19.67,1.471 19.919,1.301 C20.233,1.118 20.599,1.013 20.978,1.04 C21.121,1.196 21.109,1.419 21.174,1.615"></path>
        <path d="M38.906,2.072 C38.893,2.321 38.776,2.569 38.632,2.779 C38.554,2.792 38.476,2.738 38.436,2.674 C38.436,2.517 38.501,2.293 38.384,2.164 C38.305,2.059 38.174,2.033 38.044,2.02 C37.9,2.006 37.783,2.111 37.73,2.229 C37.6,2.908 38.632,3.237 38.357,3.954 C38.293,4.243 37.979,4.45 37.717,4.516 C37.234,4.541 36.763,4.372 36.488,3.941 C36.607,3.732 36.58,3.444 36.751,3.3 C36.829,3.288 36.882,3.314 36.934,3.379 C36.92,3.575 36.868,3.785 36.985,3.954 C37.064,4.071 37.181,4.138 37.299,4.177 C37.442,4.202 37.534,4.138 37.639,4.058 C37.769,3.941 37.783,3.744 37.744,3.575 C37.521,3.079 36.79,2.646 37.181,2.02 C37.299,1.823 37.521,1.706 37.73,1.667 C38.201,1.615 38.54,1.877 38.906,2.072"></path>
        <path d="M17.633,2.255 C17.684,2.491 17.292,2.464 17.423,2.7 L18.299,4.765 C18.325,4.935 18.129,4.908 18.05,4.987 L17.894,4.973 C17.307,4.595 16.718,4.229 16.103,3.902 L16.103,4.046 L16.665,5.182 C16.718,5.273 16.861,5.248 16.94,5.208 C16.979,5.182 17.057,5.156 17.11,5.195 C17.162,5.248 17.188,5.327 17.162,5.392 L16.195,5.888 C16.117,5.901 16.09,5.835 16.064,5.784 C16.025,5.574 16.443,5.548 16.26,5.3 C16.025,4.725 15.725,4.163 15.449,3.614 C15.333,3.457 14.901,3.732 14.993,3.392 C15.215,3.237 15.476,3.145 15.711,3.013 L15.842,3.027 L17.437,4.019 L17.514,4.019 L17.514,3.889 C17.332,3.51 17.214,3.09 16.952,2.765 C16.849,2.765 16.77,2.83 16.652,2.804 C16.6,2.765 16.547,2.7 16.575,2.635 L16.691,2.542 C16.979,2.439 17.24,2.242 17.567,2.203 L17.633,2.255"></path>
        <path d="M42.461,3.771 C42.526,3.81 42.54,3.889 42.514,3.954 C42.37,4.138 42.226,3.862 42.068,4.005 C41.755,4.516 41.363,4.987 41.219,5.574 C41.219,5.822 41.336,6.045 41.56,6.163 C41.755,6.28 42.043,6.228 42.213,6.084 C42.67,5.653 42.97,5.156 43.232,4.647 C43.219,4.491 42.931,4.399 43.127,4.243 L43.245,4.254 L44.004,4.765 C44.029,4.829 44.029,4.935 43.937,4.96 C43.82,4.973 43.729,4.869 43.61,4.92 C43.153,5.522 42.736,6.476 41.885,6.555 C41.389,6.541 40.906,6.228 40.723,5.758 C40.593,4.947 41.206,4.385 41.56,3.732 C41.625,3.561 41.181,3.365 41.52,3.262 L42.461,3.771"></path>
        <path d="M40.109,3.823 C40.148,3.954 40.122,4.097 40.018,4.189 C39.926,4.281 39.782,4.281 39.652,4.254 C39.508,4.163 39.442,3.98 39.495,3.81 C39.533,3.719 39.625,3.666 39.704,3.64 C39.874,3.614 40.043,3.666 40.109,3.823"></path>
        <path d="M13.737,5.862 L13.712,5.862 C13.685,5.666 13.568,5.483 13.595,5.287 C13.765,5.364 13.909,5.497 14.052,5.626 C14.026,5.77 13.842,5.835 13.737,5.862 Z M15.385,5.888 C14.732,5.418 14.091,4.935 13.451,4.424 C13.28,4.32 13.098,4.516 13.032,4.66 C13.15,5.456 13.372,6.202 13.503,6.999 C13.581,7.195 13.319,7.299 13.294,7.482 C13.308,7.547 13.385,7.587 13.438,7.587 L14.314,6.986 L14.339,6.856 C14.261,6.659 14.078,6.842 13.961,6.842 C13.842,6.737 13.87,6.595 13.817,6.463 C13.777,6.149 14.183,6.123 14.366,5.941 C14.549,5.901 14.653,6.137 14.81,6.214 C14.901,6.385 14.6,6.423 14.653,6.595 C14.679,6.659 14.758,6.711 14.836,6.672 C15.176,6.437 15.555,6.28 15.881,6.045 C15.895,5.653 15.568,5.993 15.385,5.888 Z"></path>
        <path d="M45.832,6.07 C45.832,6.293 45.598,6.463 45.44,6.646 C45.362,6.699 45.296,6.632 45.244,6.567 C45.283,6.346 45.479,6.045 45.205,5.862 C45.1,5.797 44.97,5.706 44.826,5.784 C44.734,5.822 44.669,5.941 44.617,6.019 C44.551,6.646 45.205,7.195 44.722,7.782 C44.551,7.966 44.343,8.032 44.107,8.058 C43.663,8.058 43.245,7.743 43.062,7.338 C42.865,7.052 43.258,6.842 43.389,6.607 C43.48,6.581 43.533,6.659 43.572,6.711 C43.48,6.92 43.414,7.209 43.519,7.43 C43.61,7.534 43.702,7.624 43.832,7.652 C44.004,7.665 44.16,7.547 44.251,7.391 C44.448,6.751 43.676,6.28 44.121,5.653 C44.265,5.443 44.461,5.392 44.656,5.339 C45.166,5.313 45.532,5.731 45.832,6.07"></path>
        <path d="M11.412,5.835 C11.465,6.019 11.138,6.084 11.255,6.254 C11.699,6.751 12.183,7.286 12.706,7.717 C12.875,7.771 13.072,7.47 13.177,7.73 L13.163,7.849 L12.197,8.567 C12.131,8.581 12.065,8.554 12.04,8.489 C12.026,8.332 12.248,8.253 12.183,8.096 C11.869,7.743 11.582,7.417 11.242,7.117 C11.177,7.195 11.242,7.286 11.255,7.352 C11.412,7.834 11.582,8.292 11.779,8.75 C11.79,8.841 11.779,8.934 11.687,8.973 C11.438,8.947 11.269,8.75 11.046,8.659 C10.693,8.489 10.38,8.266 10.001,8.163 L10.001,8.24 L10.811,9.259 C10.955,9.312 11.15,9.063 11.242,9.286 L11.229,9.364 L10.51,10.004 C10.445,10.043 10.354,10.018 10.34,9.94 C10.275,9.756 10.576,9.679 10.458,9.507 C10.066,8.973 9.674,8.436 9.243,7.926 C9.047,7.874 8.89,8.228 8.746,7.966 L8.773,7.874 L9.438,7.26 L9.596,7.26 C10.08,7.508 10.523,7.796 11.02,7.978 C11.072,7.953 11.06,7.874 11.046,7.822 C10.876,7.324 10.681,6.856 10.55,6.332 C10.772,6.123 11.033,5.941 11.296,5.77 C11.333,5.797 11.386,5.784 11.412,5.835"></path>
        <path d="M50.942,9.063 C51.243,10.371 50.549,11.429 49.766,12.369 L48.55,13.572 L36.567,23.661 C35.417,24.77 33.862,25.567 33.13,27.018 C32.385,28.874 31.98,30.874 31.72,32.925 C31.536,34.401 30.909,35.811 29.55,36.689 C28.492,37.564 27.08,37.564 25.656,37.537 L20.821,37.577 C20.482,37.628 20.128,37.761 19.933,38.1 C19.814,38.244 19.88,38.635 19.567,38.53 C19.475,38.506 19.345,38.479 19.357,38.334 C19.318,37.237 19.41,36.088 20.35,35.356 C20.86,34.964 21.54,34.938 22.193,34.872 C24.049,34.911 25.865,34.819 27.707,34.832 C28.126,34.794 28.518,34.61 28.739,34.232 C29.04,33.435 29.002,32.508 29.197,31.671 C29.498,29.749 29.915,27.867 30.608,26.103 C30.935,25.32 31.523,24.601 32.228,24 L36.424,20.485 L39.469,17.896 L44.265,13.833 C46.276,12.095 49.007,10.175 49.348,7.47 C49.426,7.272 49.623,7.43 49.74,7.47 C50.314,7.822 50.863,8.397 50.942,9.063"></path>
        <path d="M46.512,8.567 C46.395,8.515 46.238,8.423 46.225,8.279 C46.381,8.174 46.55,8.096 46.734,8.044 C46.722,8.228 46.617,8.411 46.512,8.567 Z M47.571,7.562 C47.479,7.456 47.374,7.272 47.205,7.313 C46.434,7.691 45.688,8.135 44.892,8.436 C44.774,8.397 44.683,8.319 44.551,8.332 C44.5,8.357 44.448,8.397 44.474,8.476 C44.669,8.75 44.983,8.881 45.205,9.129 C45.283,9.18 45.401,9.194 45.453,9.103 C45.493,8.984 45.401,8.919 45.349,8.841 C45.322,8.659 45.585,8.606 45.727,8.527 C45.962,8.527 46.133,8.815 46.317,8.973 C46.276,9.142 46.25,9.325 46.107,9.455 C45.962,9.482 45.91,9.338 45.768,9.364 C45.702,9.404 45.649,9.496 45.688,9.574 L46.525,10.384 L46.63,10.409 C46.708,10.396 46.786,10.318 46.76,10.226 C46.434,9.835 46.891,9.428 46.969,9.038 C47.152,8.54 47.414,8.071 47.571,7.562 Z"></path>
        <path d="M8.484,8.411 C8.537,8.567 8.302,8.618 8.407,8.764 C8.903,9.221 9.465,9.703 9.688,10.305 C9.779,10.737 9.569,11.115 9.256,11.39 C8.995,11.611 8.656,11.742 8.315,11.652 C7.741,11.416 7.283,10.906 6.787,10.476 C6.643,10.476 6.446,10.684 6.354,10.476 L6.382,10.384 L7.061,9.599 C7.086,9.574 7.139,9.587 7.178,9.587 C7.256,9.638 7.256,9.743 7.23,9.822 C7.178,9.874 7.165,9.94 7.165,10.018 C7.636,10.448 8.08,10.984 8.656,11.167 C8.877,11.194 9.047,11.142 9.191,10.984 C9.335,10.841 9.438,10.631 9.348,10.435 C9.1,9.886 8.551,9.441 8.08,9.063 C7.937,8.998 7.609,9.351 7.636,8.998 C7.857,8.764 8.093,8.489 8.354,8.319 C8.407,8.319 8.459,8.357 8.484,8.411"></path>
        <path d="M54.588,13.063 C54.654,14.356 53.713,15.258 52.824,16.12 L49.373,19.164 C47.95,20.354 46.512,21.569 45.1,22.784 L38.515,28.352 C37.429,29.318 37.299,30.704 36.985,32.01 C36.894,32.545 36.79,33.082 36.737,33.631 C36.751,34.179 37.39,34.479 37.273,35.067 C36.907,35.839 36.358,36.532 36.045,37.316 C36.083,37.499 36.175,37.708 36.358,37.771 C36.737,37.943 37.273,37.786 37.509,38.219 C37.561,38.519 37.299,38.935 37.612,39.171 C37.757,39.42 38.254,39.067 38.161,39.473 C38.031,39.577 38.005,39.733 38.044,39.891 C38.214,40.099 38.593,40.269 38.476,40.608 C38.318,40.949 38.436,41.353 38.606,41.627 C39.43,42.647 40.893,42.151 42.03,42.125 C42.945,42.151 43.951,42.125 44.461,42.986 C44.734,43.444 44.669,44.137 44.461,44.606 C43.505,46.28 41.52,46.541 40.396,48.084 C39.926,48.749 40.082,49.769 40.423,50.449 C40.919,51.22 41.729,51.56 42.657,51.415 L43.546,51.167 C43.649,51.207 43.702,51.309 43.754,51.391 C43.794,51.571 43.572,51.677 43.467,51.768 C42.278,52.632 41.05,53.441 39.481,53.363 C38.54,53.205 37.574,52.383 37.326,51.429 C37.051,50.566 37.181,49.508 37.769,48.815 C38.789,47.704 40.082,47.118 41.062,45.967 C41.376,45.521 41.468,44.856 41.194,44.372 C40.344,42.895 38.462,43.471 37.038,43.51 C36.462,43.471 35.823,43.196 35.64,42.596 C35.483,42.125 35.835,41.589 35.522,41.184 C35.287,41.065 34.96,40.922 34.894,40.635 C34.816,40.413 35.248,40.269 34.987,40.126 C34.829,40.126 34.686,40.086 34.555,39.98 C34.477,39.863 34.372,39.72 34.438,39.55 C34.516,39.263 34.855,39.067 34.765,38.727 C34.307,38.152 33.522,38.987 33.118,38.257 C32.843,37.617 33.496,37.185 33.718,36.662 C34.033,36.113 34.724,35.617 34.45,34.924 C34.281,34.61 34.006,34.35 34.033,33.971 C33.993,33.604 34.097,33.304 34.123,32.965 C34.281,31.711 34.594,30.521 34.829,29.292 C35.143,27.986 36.202,26.889 37.299,26 L40.161,23.581 L46.434,18.277 L50.929,14.316 C51.896,13.362 52.954,12.421 52.89,11.024 C52.954,10.881 53.098,10.984 53.189,11.024 C53.921,11.481 54.496,12.226 54.588,13.063"></path>
        <path d="M6.119,11.063 C6.119,11.194 5.977,11.285 6.055,11.429 L7.688,12.604 C7.883,12.696 8.015,12.226 8.185,12.526 L8.158,12.67 L7.479,13.532 C7.414,13.585 7.347,13.519 7.309,13.468 C7.27,13.336 7.4,13.218 7.375,13.101 C7.152,12.918 6.93,12.749 6.695,12.604 C6.485,12.645 6.434,12.879 6.303,13.023 C6.211,13.141 6.107,13.258 6.081,13.415 L6.787,13.885 C6.97,13.898 7.1,13.546 7.256,13.781 C7.1,14.173 6.812,14.512 6.577,14.853 C6.499,14.866 6.408,14.839 6.395,14.761 C6.459,14.591 6.577,14.316 6.303,14.239 L4.799,13.271 C4.604,13.232 4.474,13.651 4.302,13.39 C4.447,13.01 4.709,12.683 4.957,12.343 C5.022,12.317 5.14,12.317 5.166,12.409 C5.166,12.553 4.97,12.722 5.179,12.827 C5.388,12.932 5.558,13.141 5.793,13.141 L6.303,12.409 C6.198,12.16 5.924,12.068 5.728,11.925 C5.531,11.834 5.375,12.265 5.218,12.004 C5.375,11.625 5.688,11.311 5.95,10.984 C6.015,10.972 6.093,10.984 6.119,11.063"></path>
        <path d="M4.565,17.65 C4.33,17.701 4.069,17.676 3.911,17.492 C3.859,17.413 3.794,17.348 3.807,17.257 C4.16,17.023 4.565,16.918 4.983,16.918 L5.022,16.956 C5.009,17.243 4.826,17.518 4.565,17.65 Z M3.48,16.669 C3.323,16.694 3.153,16.747 2.996,16.683 C2.879,16.63 2.827,16.499 2.866,16.369 C2.958,16.173 3.271,16.159 3.389,16.328 C3.441,16.434 3.545,16.538 3.48,16.669 Z M5.741,15.938 C5.597,15.884 5.571,16.055 5.506,16.12 C5.414,16.211 5.309,16.277 5.179,16.25 C5.048,16.199 5.035,16.028 4.957,15.938 C4.774,15.597 4.407,15.481 4.081,15.545 C3.847,15.597 3.924,15.871 3.885,16.041 C4.016,16.236 4.121,15.884 4.33,15.976 C4.526,16.003 4.76,16.094 4.812,16.291 C4.617,16.342 4.421,16.394 4.225,16.434 C4.069,16.434 3.95,16.63 3.794,16.551 C3.754,16.265 3.728,15.924 3.401,15.807 C3.192,15.742 2.945,15.768 2.788,15.95 C2.513,16.225 2.396,16.657 2.54,17.023 C2.618,17.165 2.774,17.271 2.918,17.309 C3.101,17.361 3.35,17.271 3.52,17.387 C3.532,17.714 3.611,18.053 3.938,18.223 C4.172,18.328 4.486,18.381 4.709,18.223 C5.14,17.937 5.375,17.427 5.284,16.918 C5.323,16.826 5.427,16.826 5.506,16.799 C5.846,16.694 5.702,16.277 5.806,16.017 L5.741,15.938 Z"></path>
        <path d="M1.717,19.321 C1.717,19.439 1.676,19.583 1.82,19.636 C2.474,19.818 3.101,20.039 3.768,20.171 C3.885,20.08 3.898,19.844 4.094,19.884 L4.172,20.002 C4.042,20.38 3.938,20.785 3.78,21.151 C3.703,21.177 3.623,21.138 3.598,21.06 C3.559,20.917 3.689,20.707 3.467,20.68 C3.192,20.667 2.996,20.458 2.709,20.51 C2.552,20.785 2.46,21.124 2.46,21.452 C2.722,21.569 3.023,21.595 3.311,21.673 C3.454,21.582 3.441,21.269 3.675,21.387 C3.742,21.595 3.623,21.804 3.572,22.001 C3.415,22.197 3.623,22.759 3.218,22.667 C3.075,22.523 3.323,22.249 3.062,22.208 C2.421,22.027 1.781,21.896 1.128,21.752 C1.01,21.856 1.01,22.119 0.814,22.079 C0.683,22.039 0.749,21.87 0.774,21.778 C0.84,21.439 0.919,21.112 1.037,20.799 C1.076,20.746 1.18,20.759 1.22,20.799 C1.324,20.929 1.128,21.151 1.376,21.204 C1.637,21.177 1.978,21.543 2.134,21.191 L2.317,20.406 C2.121,20.249 1.847,20.263 1.612,20.158 C1.389,20.145 1.389,20.654 1.167,20.354 C1.285,19.961 1.337,19.517 1.559,19.179 C1.651,19.15 1.717,19.23 1.717,19.321"></path>
        <path d="M52.419,19.503 C52.929,20.433 52.929,21.804 52.235,22.641 C51.7,23.32 51.073,23.856 50.433,24.47 L43.219,30.48 C42.135,31.318 41.755,32.52 41.834,33.853 C41.834,34.258 42.199,34.533 42.043,34.951 C41.873,35.33 41.703,35.721 41.494,36.088 C41.468,36.218 41.468,36.389 41.572,36.493 C41.846,36.701 42.473,36.532 42.421,37.08 C42.409,37.237 42.37,37.395 42.448,37.525 C42.565,37.865 43.127,37.419 42.997,37.903 C42.905,37.995 42.905,38.14 42.931,38.257 C43.114,38.558 43.533,38.388 43.676,38.727 C43.715,39.106 43.794,39.577 44.226,39.693 C44.957,39.863 45.585,39.536 46.212,39.316 C47.571,38.661 49.086,38.309 50.732,38.452 C51.961,38.635 53.045,39.212 54.286,39.394 C55.123,39.577 56.078,39.432 56.901,39.394 C57.006,39.445 56.927,39.55 56.888,39.616 C55.541,41.224 53.803,42.634 51.648,42.125 C50.21,41.851 49.06,40.87 47.649,40.505 C45.558,40.189 44.042,41.627 41.963,41.302 C41.546,41.248 41.194,40.962 40.984,40.583 C40.788,40.23 40.971,39.785 40.945,39.407 C40.801,39.145 40.24,39.184 40.384,38.754 C40.396,38.661 40.579,38.584 40.435,38.492 C40.291,38.479 40.148,38.479 40.03,38.374 C39.729,38.086 40.24,37.577 39.795,37.367 C39.377,37.342 38.815,37.485 38.632,37.003 C38.554,36.662 38.763,36.389 38.906,36.113 C39.102,35.696 39.533,35.356 39.481,34.832 C39.377,34.533 39.142,34.309 39.128,33.983 C39.377,32.154 39.351,30.167 41.089,28.992 L48.12,23.072 C49.321,22.013 50.602,21.099 51.713,19.884 C51.883,19.675 51.975,19.413 52.157,19.217 C52.314,19.23 52.353,19.4 52.419,19.503"></path>
        <g transform="translate(0.000000, 22.000000)">
            <path d="M1.415,0.55 C1.454,0.693 1.298,0.732 1.206,0.771 C1.088,0.798 0.919,0.771 0.879,0.928 C0.905,1.072 0.762,1.269 0.945,1.347 C1.572,1.478 2.213,1.608 2.853,1.661 C2.97,1.542 2.945,1.215 3.206,1.32 C3.297,1.478 3.167,1.661 3.167,1.843 C3.115,2.104 3.101,2.405 2.996,2.653 C2.945,2.68 2.905,2.68 2.853,2.653 C2.696,2.537 2.918,2.222 2.657,2.195 C2.003,2.13 1.402,1.961 0.749,1.895 C0.632,2.038 0.671,2.248 0.658,2.417 C0.774,2.548 1.088,2.548 1.024,2.797 C0.932,2.89 0.814,2.797 0.71,2.81 C0.539,2.732 0.292,2.797 0.2,2.601 C0.383,1.921 0.422,1.178 0.592,0.483 L0.658,0.445 C0.905,0.497 1.232,0.366 1.415,0.55" mask="url(#mask-2)"></path>
            <path d="M2.905,3.28 C2.97,3.855 2.774,4.404 2.827,5.018 C2.788,5.058 2.774,5.136 2.709,5.122 C2.618,5.162 2.552,5.071 2.54,5.006 C2.513,4.914 2.552,4.797 2.447,4.731 C1.742,4.756 1.128,4.574 0.409,4.64 C0.239,4.705 0.344,5.058 0.083,4.953 C-0.036,4.627 0.108,4.298 0.083,3.946 C0.108,3.855 0.07,3.724 0.187,3.673 C0.305,3.634 0.344,3.724 0.383,3.804 C0.422,3.882 0.344,4.025 0.488,4.065 C1.102,4.169 1.808,4.103 2.435,4.182 L2.513,4.103 C2.46,3.882 2.683,3.542 2.382,3.438 C2.291,3.386 2.186,3.346 2.108,3.268 C2.083,3.177 2.121,3.085 2.213,3.059 C2.447,3.111 2.683,3.188 2.905,3.28" mask="url(#mask-2)"></path>
            <path d="M1.52,7.122 C1.324,7.108 1.128,7.044 0.958,6.952 C1.088,6.808 1.311,6.77 1.493,6.742 L1.559,6.821 C1.546,6.925 1.584,7.044 1.52,7.122 Z M2.788,7.226 C2.774,7.149 2.696,7.095 2.604,7.122 C2.5,7.149 2.5,7.278 2.513,7.371 C2.369,7.528 2.213,7.345 2.056,7.345 C1.794,7.2 1.938,6.848 1.899,6.6 C2.056,6.481 2.239,6.417 2.435,6.377 C2.526,6.455 2.5,6.587 2.552,6.678 C2.63,6.705 2.748,6.716 2.774,6.613 L2.788,5.41 L2.735,5.346 C2.421,5.254 2.604,5.645 2.396,5.724 C1.651,6.012 0.932,6.364 0.161,6.6 L0.017,6.73 C-0.022,6.86 0.004,7.005 0.108,7.108 L2.317,7.854 C2.526,7.906 2.579,8.128 2.657,8.284 C2.696,8.299 2.788,8.325 2.827,8.259 C2.879,7.906 2.774,7.579 2.788,7.226 Z" mask="url(#mask-2)"></path>
        </g>
        <path d="M2.918,30.704 C2.958,31.266 3.023,31.827 3.101,32.363 C3.075,32.441 2.958,32.454 2.905,32.402 C2.801,31.789 2.213,32.298 1.847,32.192 L0.724,32.298 C0.449,32.311 0.71,32.768 0.383,32.664 C0.266,32.416 0.266,32.128 0.252,31.853 C0.266,31.539 0.004,31.122 0.305,30.913 C0.461,30.835 0.632,30.821 0.814,30.795 C0.866,30.861 0.932,30.952 0.866,31.017 C0.762,31.122 0.592,31.134 0.539,31.266 C0.566,31.435 0.527,31.618 0.632,31.748 L1.324,31.697 C1.429,31.631 1.376,31.501 1.362,31.41 C1.271,31.305 0.997,31.369 1.062,31.16 C1.311,31.03 1.625,31.043 1.911,31.017 C1.964,31.03 2.03,31.057 2.056,31.108 C2.042,31.344 1.454,31.332 1.808,31.644 C2.083,31.618 2.396,31.644 2.604,31.501 C2.618,31.266 2.604,31.03 2.435,30.874 C2.305,30.821 2.121,30.808 2.056,30.678 C2.03,30.612 2.083,30.559 2.134,30.533 C2.408,30.559 2.735,30.509 2.918,30.704"></path>
        <path d="M3.284,33.199 C3.271,33.487 3.441,33.709 3.401,34.009 C3.375,34.088 3.271,34.062 3.218,34.049 C3.128,33.879 3.01,33.696 2.774,33.788 C2.579,33.905 2.239,33.813 2.147,34.062 C2.186,34.338 2.265,34.585 2.317,34.847 C2.447,35.029 2.63,34.819 2.788,34.847 C2.945,34.781 3.153,34.806 3.258,34.637 C3.271,34.52 3.231,34.361 3.362,34.309 C3.65,34.324 3.559,34.677 3.637,34.859 L3.794,35.537 C3.768,35.603 3.675,35.603 3.623,35.592 C3.506,35.5 3.467,35.173 3.218,35.303 C2.604,35.474 1.99,35.643 1.376,35.811 C1.271,35.944 1.415,36.309 1.141,36.244 C0.997,35.853 0.893,35.42 0.854,35.003 C0.879,34.938 0.958,34.924 1.024,34.951 C1.102,35.042 1.115,35.159 1.206,35.239 C1.467,35.147 1.808,35.173 1.99,34.964 C1.938,34.662 1.859,34.361 1.755,34.075 C1.481,34.075 1.167,34.1 0.958,34.297 C0.945,34.415 0.984,34.571 0.866,34.624 C0.774,34.649 0.683,34.571 0.671,34.479 C0.632,34.141 0.527,33.813 0.461,33.475 C0.461,33.423 0.461,33.355 0.539,33.345 C0.644,33.291 0.71,33.435 0.749,33.501 C0.749,33.565 0.827,33.618 0.879,33.656 C1.546,33.501 2.213,33.383 2.866,33.213 C3.023,33.107 2.853,32.716 3.167,32.808 L3.284,33.199"></path>
        <g transform="translate(1.000000, 37.000000)">
            <path d="M3.617,0.694 C3.734,0.969 3.812,1.257 3.943,1.53 C3.97,1.609 3.904,1.648 3.852,1.676 C3.644,1.661 3.629,1.296 3.407,1.439 C2.819,1.701 2.206,1.91 1.618,2.171 C1.447,2.303 1.735,2.655 1.396,2.642 C1.147,2.158 0.964,1.648 0.769,1.14 C0.82,0.892 1.108,0.852 1.278,0.708 C1.357,0.694 1.421,0.747 1.447,0.812 C1.46,0.981 1.239,1.06 1.186,1.219 C1.226,1.36 1.252,1.53 1.369,1.622 C1.643,1.558 1.905,1.466 2.141,1.309 C2.115,1.19 2.075,1.06 1.984,0.995 C1.879,0.969 1.722,1.06 1.696,0.917 C1.643,0.812 1.774,0.747 1.84,0.708 C2.075,0.656 2.271,0.485 2.532,0.473 C2.598,0.525 2.611,0.617 2.572,0.682 C2.506,0.771 2.311,0.825 2.401,0.981 C2.441,1.048 2.467,1.14 2.545,1.152 C2.807,1.072 3.081,1.008 3.302,0.838 C3.302,0.721 3.277,0.551 3.381,0.447 C3.552,0.407 3.552,0.602 3.617,0.694"></path>
            <path d="M25.858,3.922 C28.838,4.901 31.738,6.104 34.548,7.49 C35.436,8.026 36.888,8.562 36.9,9.842 C36.639,12.352 32.862,12.718 33.281,15.486 C33.386,16.455 33.934,17.434 34.875,17.865 C35.175,18.035 35.554,18.048 35.894,18.101 C36.326,18.27 36.874,17.669 37.058,18.309 C37.096,18.584 36.757,18.625 36.6,18.78 C35.188,19.643 33.164,20.649 31.582,19.446 C30.693,18.807 30.288,17.827 30.262,16.755 C30.288,15.016 31.974,13.957 33.149,12.781 C33.66,12.273 34.065,11.633 33.843,10.888 C33.397,9.973 32.392,9.685 31.622,9.202 C27.623,7.189 23.454,5.596 19.089,4.458 C18.043,4.21 17.024,3.857 15.861,3.962 C15.535,4.053 15.248,4.302 15.039,4.576 C14.947,4.576 14.868,4.523 14.79,4.472 C14.606,4.184 14.79,3.831 14.829,3.518 C15.012,2.746 15.718,1.987 16.514,1.845 C16.762,1.779 17.024,1.767 17.286,1.727 C20.343,1.976 23.049,3.072 25.858,3.922"></path>
        </g>
        <path d="M5.401,40.451 C5.126,41 4.552,41.289 4.029,41.445 C3.819,41.458 3.598,41.458 3.454,41.302 C3.271,41.184 3.336,40.937 3.336,40.752 C3.675,40.099 4.395,39.655 5.126,39.733 L5.258,39.812 C5.466,39.956 5.401,40.243 5.401,40.451 Z M5.61,39.746 C5.439,39.485 5.179,39.316 4.904,39.225 C4.121,39.119 3.415,39.55 3.01,40.204 C2.866,40.518 2.879,40.87 2.996,41.184 C3.206,41.627 3.664,41.98 4.172,41.968 C4.865,41.916 5.597,41.445 5.819,40.752 C5.924,40.388 5.78,40.046 5.61,39.746 Z"></path>
        <path d="M8.08,43.718 C8.093,43.797 8.054,43.876 7.988,43.901 C7.819,43.901 7.753,43.666 7.571,43.692 C7.035,44.059 6.473,44.437 5.963,44.843 C5.977,45.014 6.133,45.13 6.224,45.274 C6.42,45.352 6.643,45.053 6.787,45.287 L6.773,45.393 L6.198,45.759 L6.119,45.745 L4.852,43.979 C4.892,43.746 5.166,43.641 5.336,43.471 C5.401,43.444 5.506,43.444 5.531,43.536 C5.544,43.732 5.284,43.85 5.336,44.045 C5.439,44.15 5.48,44.412 5.675,44.346 C6.198,43.941 6.773,43.641 7.283,43.222 C7.295,43.039 7.009,42.856 7.244,42.712 L7.361,42.726 L8.08,43.718"></path>
        <path d="M9.008,44.869 L8.484,46.921 C8.537,46.973 8.615,46.894 8.668,46.855 L9.583,45.979 C9.635,45.797 9.283,45.654 9.53,45.51 L9.661,45.521 L10.38,46.28 C10.418,46.372 10.34,46.411 10.275,46.436 C10.118,46.436 10.027,46.24 9.87,46.306 C9.374,46.789 8.798,47.194 8.354,47.704 C8.381,47.862 8.602,48.031 8.381,48.135 C8.132,48.031 7.937,47.782 7.766,47.573 C7.714,47.221 7.924,46.881 7.988,46.528 C8.027,46.189 8.21,45.901 8.185,45.549 L8.093,45.588 L7.178,46.397 C7.073,46.581 7.453,46.725 7.178,46.855 L7.061,46.83 L6.459,46.149 C6.42,46.084 6.446,45.992 6.525,45.979 C6.695,45.94 6.773,46.189 6.93,46.07 C7.531,45.575 8.119,45.064 8.72,44.581 C8.851,44.595 8.955,44.751 9.008,44.869"></path>
        <path d="M12.104,47.809 C12.131,47.888 12.065,47.939 12.013,47.966 C11.869,47.979 11.751,47.822 11.608,47.9 C11.164,48.41 10.667,48.893 10.236,49.416 C10.223,49.573 10.418,49.664 10.314,49.822 C10.21,49.899 10.106,49.756 10.027,49.689 L8.981,48.749 C8.942,48.527 9.178,48.396 9.256,48.2 C9.322,48.123 9.4,48.148 9.478,48.189 C9.583,48.396 9.243,48.711 9.596,48.841 C9.674,48.906 9.779,49.051 9.883,48.921 C10.04,48.737 10.262,48.62 10.314,48.396 C10.236,48.319 10.157,48.2 10.04,48.267 C9.975,48.306 9.883,48.358 9.805,48.319 C9.765,48.267 9.752,48.215 9.752,48.162 C9.962,47.952 10.157,47.69 10.38,47.535 C10.445,47.548 10.51,47.587 10.523,47.652 C10.51,47.782 10.354,47.862 10.418,48.006 C10.484,48.07 10.562,48.175 10.667,48.109 L11.15,47.573 C11.111,47.391 10.89,47.261 10.745,47.155 C10.537,47.077 10.157,47.495 10.145,47.077 C10.328,46.908 10.55,46.816 10.745,46.685 L10.864,46.725 L12.104,47.809"></path>
        <path d="M13.333,48.737 C13.385,48.802 13.308,48.881 13.255,48.906 C13.111,48.946 13.032,48.789 12.889,48.841 C12.614,49.233 12.367,49.651 12.17,50.07 C12.601,49.874 13.006,49.547 13.412,49.26 C13.529,49.154 13.634,49.038 13.804,49.051 C13.999,49.245 13.765,49.482 13.751,49.689 C13.659,50.108 13.555,50.514 13.49,50.945 L13.568,50.945 L14.366,49.899 C14.392,49.718 14.026,49.547 14.314,49.429 C14.627,49.587 14.941,49.781 15.228,49.991 C15.241,50.07 15.188,50.122 15.137,50.147 C14.993,50.175 14.901,50.031 14.77,50.083 C14.3,50.605 13.895,51.167 13.49,51.717 C13.463,51.899 13.947,52.057 13.607,52.199 C13.319,52.057 13.006,51.887 12.771,51.651 C12.85,51.103 12.98,50.566 13.085,50.017 C12.994,49.953 12.902,50.083 12.81,50.122 L11.674,50.906 L11.518,50.866 L10.89,50.396 C10.837,50.317 10.876,50.214 10.981,50.214 C11.086,50.239 11.189,50.345 11.308,50.306 C11.699,49.73 12.053,49.142 12.378,48.527 C12.419,48.332 12.013,48.162 12.314,48.019 C12.667,48.227 12.994,48.476 13.333,48.737"></path>
        <path d="M16.561,50.685 C16.718,50.749 16.887,50.814 17.018,50.933 C17.005,50.998 16.992,51.062 16.927,51.09 C16.757,51.141 16.665,50.998 16.535,51.038 C16.181,51.599 15.895,52.187 15.568,52.761 C15.594,52.944 15.816,52.984 15.947,53.049 C16.195,53.126 16.3,52.604 16.547,52.879 C16.496,53.115 16.325,53.298 16.195,53.507 C16.156,53.559 16.064,53.546 16.012,53.507 C15.412,53.154 14.784,52.893 14.183,52.566 C14.117,52.303 14.339,52.082 14.392,51.847 C14.431,51.795 14.509,51.809 14.549,51.821 C14.705,51.991 14.444,52.37 14.758,52.449 C14.849,52.486 14.941,52.592 15.046,52.554 C15.412,52.005 15.673,51.403 16,50.841 C16.012,50.605 15.501,50.541 15.803,50.317 C16.064,50.408 16.313,50.566 16.561,50.685"></path>
        <path d="M18.116,53.936 C18.024,53.99 17.894,53.924 17.803,53.886 C17.698,53.809 17.672,53.717 17.659,53.611 C17.711,53.336 17.815,53.011 18.116,52.905 C18.247,52.919 18.364,52.944 18.456,53.036 C18.391,53.351 18.234,53.637 18.116,53.936 Z M19.802,52.03 C19.423,51.899 19.043,51.729 18.651,51.625 C18.574,51.639 18.56,51.717 18.574,51.781 C18.965,51.925 18.782,52.316 18.677,52.566 C18.639,52.618 18.613,52.736 18.508,52.723 C18.299,52.434 18.26,52.069 18.182,51.729 C18.155,51.376 17.762,51.114 17.489,50.957 C17.41,50.972 17.384,51.05 17.371,51.103 C17.581,51.56 17.737,52.042 17.841,52.554 C17.803,52.696 17.619,52.644 17.514,52.723 C17.214,52.879 17.083,53.181 17.083,53.507 C17.188,54.29 18.089,54.225 18.613,54.552 C18.718,54.564 18.821,54.683 18.913,54.564 C19.018,54.369 18.743,54.343 18.665,54.213 C18.809,53.599 19.135,53.074 19.306,52.474 C19.318,52.122 19.645,52.33 19.828,52.239 C19.867,52.187 19.88,52.069 19.802,52.03 Z"></path>
        <path d="M27.015,53.415 C27.067,53.428 27.08,53.507 27.054,53.546 C26.962,53.703 26.74,53.559 26.675,53.755 C26.662,54.46 26.531,55.101 26.492,55.794 C26.557,55.936 26.872,55.886 26.806,56.121 L26.74,56.173 C26.192,56.068 25.578,56.121 25.042,56.002 C24.976,55.794 24.951,55.48 25.081,55.309 C25.225,55.258 25.277,55.415 25.316,55.506 C25.303,55.61 25.395,55.716 25.485,55.728 C25.63,55.702 25.878,55.871 25.943,55.649 C25.891,55.4 26.035,55.206 25.983,54.984 C25.917,54.904 25.825,54.918 25.735,54.918 C25.59,54.984 25.643,55.258 25.433,55.167 C25.303,54.865 25.408,54.513 25.474,54.213 C25.5,54.161 25.59,54.174 25.643,54.199 C25.787,54.277 25.59,54.526 25.812,54.564 C25.917,54.577 26.048,54.564 26.06,54.448 L26.126,53.78 C25.957,53.637 25.696,53.676 25.485,53.688 C25.342,53.821 25.303,54.095 25.081,54.082 C24.911,53.859 25.172,53.584 25.211,53.336 C25.252,53.272 25.303,53.272 25.355,53.259 C25.891,53.351 26.479,53.311 27.015,53.415"></path>
        <path d="M21.004,54.316 C20.964,54.133 20.912,53.913 20.978,53.729 C21.109,53.755 21.253,53.717 21.343,53.821 C21.279,54.004 21.174,54.213 21.004,54.316 Z M22.833,52.879 L22.102,52.71 C21.971,52.684 21.788,52.592 21.683,52.723 C21.591,52.905 21.841,52.905 21.919,52.998 C21.893,53.181 21.761,53.323 21.644,53.455 C21.436,53.415 21.226,53.415 21.043,53.336 C20.781,53.272 20.952,52.957 20.899,52.761 C20.978,52.632 21.095,52.761 21.2,52.723 C21.253,52.684 21.305,52.618 21.279,52.526 C20.885,52.344 20.455,52.278 20.063,52.108 L19.945,52.199 C19.88,52.434 20.154,52.37 20.233,52.526 C20.35,53.363 20.363,54.238 20.468,55.075 C20.56,55.18 20.743,55.244 20.885,55.191 C21.436,54.513 21.893,53.78 22.468,53.126 C22.598,53.089 22.742,53.141 22.846,53.049 C22.859,52.998 22.886,52.919 22.833,52.879 Z"></path>
        <path d="M29.119,55.78 C28.961,55.886 28.726,55.833 28.544,55.819 C28.06,55.728 28.048,55.218 27.982,54.838 C27.982,54.422 28.021,54.004 28.4,53.768 C28.597,53.742 29.054,53.599 29.093,53.898 C29.054,54.54 29.158,55.127 29.119,55.78 Z M29.76,55.794 C29.655,55.127 29.72,54.395 29.655,53.703 C29.76,53.546 30.047,53.663 30.047,53.415 C29.915,53.231 29.641,53.351 29.445,53.311 C28.726,53.441 27.799,53.284 27.472,54.133 C27.275,54.669 27.25,55.454 27.695,55.886 C28.139,56.145 28.687,56.265 29.237,56.133 C29.512,56.081 29.851,56.198 30.099,56.04 C30.178,55.794 29.864,55.911 29.76,55.794 Z"></path>
        <path d="M23.355,55.415 C23.303,55.506 23.186,55.454 23.134,55.428 C23.029,55.415 22.938,55.296 22.898,55.218 C22.873,54.892 22.886,54.54 23.199,54.395 C23.292,54.381 23.473,54.356 23.513,54.474 C23.513,54.812 23.37,55.088 23.355,55.415 Z M24.585,53.181 L23.761,53.036 C23.617,53.049 23.473,52.919 23.355,53.036 C23.239,53.311 23.591,53.218 23.683,53.375 C23.669,53.625 23.644,53.872 23.525,54.069 C23.147,54.056 22.781,54.056 22.507,54.29 C22.271,54.54 22.232,54.892 22.285,55.244 C22.493,55.794 23.12,55.716 23.605,55.807 C23.813,55.833 24.049,55.963 24.257,55.871 C24.336,55.636 24.009,55.702 23.944,55.533 C24.035,54.865 24.152,54.213 24.257,53.546 C24.296,53.351 24.545,53.441 24.65,53.336 C24.689,53.272 24.65,53.192 24.585,53.181 Z"></path>
</svg>
