<?xml version="1.0" encoding="UTF-8" standalone="no"?>
<svg viewBox="0 0 160 54" width="160px" height="54px" version="1.1" xmlns="http://www.w3.org/2000/svg" xmlns:xlink="http://www.w3.org/1999/xlink">
	<defs></defs>

      <g id="Administration" transform="translate(69.000000, 46.000000)">
          <path d="M4.07071429,4.89890789 L3.39428571,2.83092105 C3.24071429,2.36232895 3.13821429,1.93601316 3.03571429,1.52035526 L3.01535714,1.52035526 C2.91285714,1.94667105 2.8,2.38364474 2.66678571,2.82061842 L1.99071429,4.89890789 L4.07071429,4.89890789 Z M1.80642857,5.62364474 L1.08928571,7.88276316 L0.167142857,7.88276316 L2.51321429,0.699697368 L3.58892857,0.699697368 L5.94535714,7.88276316 L4.9925,7.88276316 L4.255,5.62364474 L1.80642857,5.62364474 Z"></path>
          <path d="M9.88928571,4.82430263 C9.88928571,4.70706579 9.87892857,4.54684211 9.84821429,4.42960526 C9.715,3.83311842 9.22321429,3.34285526 8.54714286,3.34285526 C7.615,3.34285526 7.06178571,4.19513158 7.06178571,5.33552632 C7.06178571,6.38035526 7.55357143,7.24328947 8.52678571,7.24328947 C9.13142857,7.24328947 9.68428571,6.82763158 9.84821429,6.12421053 C9.87892857,5.99631579 9.88928571,5.86842105 9.88928571,5.71921053 L9.88928571,4.82430263 Z M10.7910714,0.316013158 L10.7910714,6.55052632 C10.7910714,7.00881579 10.8010714,7.53105263 10.8317857,7.88276316 L10.0225,7.88276316 L9.98142857,6.9875 L9.96107143,6.9875 C9.68428571,7.56302632 9.08,8 8.27071429,8 C7.07178571,8 6.15,6.94486842 6.15,5.37815789 C6.13964286,3.66223684 7.16428571,2.60710526 8.37321429,2.60710526 C9.13142857,2.60710526 9.64357143,2.98013158 9.86892857,3.39578947 L9.88928571,3.39578947 L9.88928571,0.316013158 L10.7910714,0.316013158 Z"></path>
          <path d="M11.9153571,4.12052632 C11.9153571,3.58763158 11.905,3.15101316 11.8742857,2.72434211 L12.6632143,2.72434211 L12.7039286,3.55565789 L12.7346429,3.55565789 C13.0117857,3.06539474 13.4725,2.60710526 14.2921429,2.60710526 C14.9682143,2.60710526 15.4807143,3.03377632 15.6957143,3.64127632 L15.7160714,3.64127632 C15.87,3.35351316 16.0646429,3.12934211 16.2696429,2.96982895 C16.5667857,2.73535526 16.8946429,2.60710526 17.3657143,2.60710526 C18.0214286,2.60710526 18.9946429,3.05473684 18.9946429,4.84526316 L18.9946429,7.88276316 L18.1135714,7.88276316 L18.1135714,4.9625 C18.1135714,3.97131579 17.7653571,3.37482895 17.0378571,3.37482895 C16.5257143,3.37482895 16.1264286,3.76917105 15.9725,4.22710526 C15.9314286,4.355 15.9007143,4.52588158 15.9007143,4.69605263 L15.9007143,7.88276316 L15.0196429,7.88276316 L15.0196429,4.79232895 C15.0196429,3.97131579 14.6710714,3.37482895 13.9846429,3.37482895 C13.4210714,3.37482895 13.0117857,3.84377632 12.8678571,4.31236842 C12.8167857,4.45127632 12.7964286,4.61078947 12.7964286,4.77065789 L12.7964286,7.88276316 L11.9153571,7.88276316 L11.9153571,4.12052632"></path>
          <path d="M20.0885714,7.88276316 L20.9903571,7.88276316 L20.9903571,2.72434211 L20.0885714,2.72434211 L20.0885714,7.88276316 Z M21.0928571,1.27486842 C21.1032143,1.59496053 20.8775,1.85075 20.5189286,1.85075 C20.2014286,1.85075 19.9760714,1.59496053 19.9760714,1.27486842 C19.9760714,0.944828947 20.2117857,0.689039474 20.5396429,0.689039474 C20.8775,0.689039474 21.0928571,0.944828947 21.0928571,1.27486842 Z"></path>
          <path d="M22.0989286,4.12052632 C22.0989286,3.58763158 22.0889286,3.15101316 22.0582143,2.72434211 L22.8571429,2.72434211 L22.9085714,3.57732895 L22.9289286,3.57732895 C23.175,3.08706579 23.7485714,2.60710526 24.5682143,2.60710526 C25.2546429,2.60710526 26.32,3.03377632 26.32,4.80263158 L26.32,7.88276316 L25.4185714,7.88276316 L25.4185714,4.90921053 C25.4185714,4.07789474 25.1214286,3.38548684 24.2710714,3.38548684 C23.6767857,3.38548684 23.2157143,3.82210526 23.0621429,4.34434211 C23.0210714,4.46157895 23.0007143,4.62144737 23.0007143,4.78167105 L23.0007143,7.88276316 L22.0989286,7.88276316 L22.0989286,4.12052632"></path>
          <path d="M27.4035714,7.88276316 L28.305,7.88276316 L28.305,2.72434211 L27.4035714,2.72434211 L27.4035714,7.88276316 Z M28.4075,1.27486842 C28.4178571,1.59496053 28.1925,1.85075 27.8339286,1.85075 C27.5164286,1.85075 27.2907143,1.59496053 27.2907143,1.27486842 C27.2907143,0.944828947 27.5264286,0.689039474 27.8542857,0.689039474 C28.1925,0.689039474 28.4075,0.944828947 28.4075,1.27486842 Z"></path>
          <path d="M29.2692857,6.92355263 C29.5357143,7.10509211 30.0071429,7.29657895 30.4575,7.29657895 C31.1132143,7.29657895 31.4210714,6.95552632 31.4210714,6.52921053 C31.4210714,6.08193421 31.1646429,5.83644737 30.4989286,5.58101316 C29.6075,5.25026316 29.1875,4.73868421 29.1875,4.12052632 C29.1875,3.28921053 29.8328571,2.60710526 30.8982143,2.60710526 C31.4003571,2.60710526 31.8407143,2.75631579 32.1175,2.92719737 L31.8921429,3.60930263 C31.6975,3.48105263 31.3389286,3.31088158 30.8778571,3.31088158 C30.345,3.31088158 30.0478571,3.63026316 30.0478571,4.01394737 C30.0478571,4.44061842 30.345,4.63246053 30.9907143,4.88789474 C31.8510714,5.22894737 32.2917857,5.67657895 32.2917857,6.44394737 C32.2917857,7.34986842 31.6157143,7.98934211 30.4375,7.98934211 C29.8942857,7.98934211 29.3921429,7.85078947 29.0439286,7.63763158 L29.2692857,6.92355263"></path>
          <path d="M34.2689286,1.24325 L34.2689286,2.72434211 L35.56,2.72434211 L35.56,3.43842105 L34.2689286,3.43842105 L34.2689286,6.22013158 C34.2689286,6.85960526 34.4432143,7.22197368 34.9453571,7.22197368 C35.1810714,7.22197368 35.355,7.19 35.4678571,7.15802632 L35.5089286,7.86144737 C35.3346429,7.93605263 35.0578571,7.98934211 34.7096429,7.98934211 C34.2896429,7.98934211 33.9514286,7.85078947 33.7364286,7.595 C33.48,7.31789474 33.3882143,6.85960526 33.3882143,6.25210526 L33.3882143,3.43842105 L32.6196429,3.43842105 L32.6196429,2.72434211 L33.3882143,2.72434211 L33.3882143,1.48838158 L34.2689286,1.24325"></path>
          <path d="M36.2025,4.33403947 C36.2025,3.72653947 36.1925,3.20394737 36.1617857,2.72434211 L36.9507143,2.72434211 L36.9814286,3.73684211 L37.0221429,3.73684211 C37.2478571,3.04443421 37.7907143,2.60710526 38.3953571,2.60710526 C38.4975,2.60710526 38.5692857,2.61811842 38.6514286,2.63907895 L38.6514286,3.52368421 C38.5592857,3.50272368 38.4667857,3.49206579 38.3439286,3.49206579 C37.7089286,3.49206579 37.2578571,3.99298684 37.135,4.69605263 C37.1146429,4.82430263 37.0939286,4.97351316 37.0939286,5.13338158 L37.0939286,7.88276316 L36.2025,7.88276316 L36.2025,4.33403947"></path>
          <path d="M41.8460714,5.25026316 C40.8625,5.22894737 39.7457143,5.41013158 39.7457143,6.41197368 C39.7457143,7.01947368 40.135,7.30723684 40.5960714,7.30723684 C41.2417857,7.30723684 41.6514286,6.88092105 41.795,6.44394737 C41.8257143,6.34802632 41.8460714,6.24144737 41.8460714,6.14552632 L41.8460714,5.25026316 Z M41.9792857,7.88276316 L41.9075,7.23263158 L41.8767857,7.23263158 C41.6003571,7.63763158 41.0675,8 40.3607143,8 C39.3564286,8 38.8442857,7.26460526 38.8442857,6.51855263 C38.8442857,5.27157895 39.9096429,4.58947368 41.8257143,4.60048684 L41.8257143,4.49355263 C41.8257143,4.06759211 41.7128571,3.30022368 40.6985714,3.30022368 C40.2375,3.30022368 39.7564286,3.44943421 39.4078571,3.68390789 L39.2028571,3.06539474 C39.6125,2.78828947 40.2067857,2.60710526 40.8317857,2.60710526 C42.3478571,2.60710526 42.7171429,3.68390789 42.7171429,4.71772368 L42.7171429,6.64680263 C42.7171429,7.09407895 42.7375,7.53105263 42.7989286,7.88276316 L41.9792857,7.88276316 Z"></path>
          <path d="M44.8389286,1.24325 L44.8389286,2.72434211 L46.1296429,2.72434211 L46.1296429,3.43842105 L44.8389286,3.43842105 L44.8389286,6.22013158 C44.8389286,6.85960526 45.0128571,7.22197368 45.5153571,7.22197368 C45.7510714,7.22197368 45.925,7.19 46.0375,7.15802632 L46.0789286,7.86144737 C45.9042857,7.93605263 45.6278571,7.98934211 45.2792857,7.98934211 C44.8596429,7.98934211 44.5210714,7.85078947 44.3064286,7.595 C44.05,7.31789474 43.9578571,6.85960526 43.9578571,6.25210526 L43.9578571,3.43842105 L43.1896429,3.43842105 L43.1896429,2.72434211 L43.9578571,2.72434211 L43.9578571,1.48838158 L44.8389286,1.24325"></path>
          <path d="M46.7510714,7.88276316 L47.6525,7.88276316 L47.6525,2.72434211 L46.7510714,2.72434211 L46.7510714,7.88276316 Z M47.755,1.27486842 C47.7653571,1.59496053 47.54,1.85075 47.1814286,1.85075 C46.8635714,1.85075 46.6382143,1.59496053 46.6382143,1.27486842 C46.6382143,0.944828947 46.8739286,0.689039474 47.2017857,0.689039474 C47.54,0.689039474 47.755,0.944828947 47.755,1.27486842 Z"></path>
          <path d="M49.3628571,5.31456579 C49.3628571,6.44394737 49.9878571,7.29657895 50.8689286,7.29657895 C51.7292857,7.29657895 52.375,6.45460526 52.375,5.29289474 C52.375,4.41894737 51.955,3.31088158 50.8889286,3.31088158 C49.8239286,3.31088158 49.3628571,4.33403947 49.3628571,5.31456579 Z M53.2971429,5.26092105 C53.2971429,7.16868421 52.0264286,8 50.8278571,8 C49.4857143,8 48.4507143,6.97684211 48.4507143,5.34618421 C48.4507143,3.61960526 49.5367857,2.60710526 50.9096429,2.60710526 C52.3335714,2.60710526 53.2971429,3.68390789 53.2971429,5.26092105 Z"></path>
          <path d="M54.1064286,4.12052632 C54.1064286,3.58763158 54.0964286,3.15101316 54.0657143,2.72434211 L54.8646429,2.72434211 L54.9160714,3.57732895 L54.9364286,3.57732895 C55.1825,3.08706579 55.7560714,2.60710526 56.5757143,2.60710526 C57.2621429,2.60710526 58.3278571,3.03377632 58.3278571,4.80263158 L58.3278571,7.88276316 L57.4260714,7.88276316 L57.4260714,4.90921053 C57.4260714,4.07789474 57.1289286,3.38548684 56.2785714,3.38548684 C55.6842857,3.38548684 55.2232143,3.82210526 55.07,4.34434211 C55.0285714,4.46157895 55.0082143,4.62144737 55.0082143,4.78167105 L55.0082143,7.88276316 L54.1064286,7.88276316 L54.1064286,4.12052632"></path>
      </g>
      <g id="Services" transform="translate(35.000000, 46.000000)">
          <path d="M0.347857143,6.75302632 C0.7475,7.00881579 1.33142857,7.22197368 1.94607143,7.22197368 C2.85785714,7.22197368 3.39071429,6.72105263 3.39071429,5.99631579 C3.39071429,5.32522368 3.02178571,4.94153947 2.08964286,4.56815789 C0.9625,4.1525 0.266071429,3.545 0.266071429,2.5325 C0.266071429,1.41377632 1.15714286,0.582460526 2.49928571,0.582460526 C3.20642857,0.582460526 3.71857143,0.752986842 4.02571429,0.933815789 L3.78,1.69052632 C3.55464286,1.56298684 3.09357143,1.34947368 2.46857143,1.34947368 C1.52607143,1.34947368 1.1675,1.93601316 1.1675,2.42627632 C1.1675,3.09736842 1.5875,3.42811842 2.54035714,3.81144737 C3.70821429,4.28039474 4.3025,4.86693421 4.3025,5.92171053 C4.3025,7.03013158 3.51357143,7.98934211 1.88464286,7.98934211 C1.21892857,7.98934211 0.491428571,7.78684211 0.1225,7.53105263 L0.347857143,6.75302632"></path>
          <path d="M8.32928571,4.80263158 C8.33964286,4.20578947 8.09392857,3.27890789 7.07928571,3.27890789 C6.16785714,3.27890789 5.76785714,4.1525 5.69642857,4.80263158 L8.32928571,4.80263158 Z M5.68607143,5.47443421 C5.70678571,6.74236842 6.48535714,7.26460526 7.38678571,7.26460526 C8.03214286,7.26460526 8.42178571,7.14736842 8.75964286,6.99815789 L8.91357143,7.66960526 C8.59571429,7.81881579 8.05285714,7.98934211 7.26392857,7.98934211 C5.73714286,7.98934211 4.82571429,6.94486842 4.82571429,5.38881579 C4.82571429,3.83311842 5.70678571,2.60710526 7.15107143,2.60710526 C8.77,2.60710526 9.20035714,4.08855263 9.20035714,5.03710526 C9.20035714,5.22894737 9.17964286,5.37815789 9.16964286,5.47443421 L5.68607143,5.47443421 Z"></path>
          <path d="M9.9825,4.33403947 C9.9825,3.72653947 9.97214286,3.20394737 9.94142857,2.72434211 L10.7303571,2.72434211 L10.7610714,3.73684211 L10.8021429,3.73684211 C11.0271429,3.04443421 11.5703571,2.60710526 12.1746429,2.60710526 C12.2771429,2.60710526 12.3489286,2.61811842 12.4310714,2.63907895 L12.4310714,3.52368421 C12.3385714,3.50272368 12.2464286,3.49206579 12.1235714,3.49206579 C11.4882143,3.49206579 11.0375,3.99298684 10.9146429,4.69605263 C10.8942857,4.82430263 10.8735714,4.97351316 10.8735714,5.13338158 L10.8735714,7.88276316 L9.9825,7.88276316 L9.9825,4.33403947"></path>
          <path d="M13.6614286,2.72434211 L14.635,5.62364474 C14.7989286,6.09223684 14.9321429,6.51855263 15.0346429,6.94486842 L15.0653571,6.94486842 C15.1778571,6.51855263 15.3214286,6.09223684 15.4853571,5.62364474 L16.4482143,2.72434211 L17.3907143,2.72434211 L15.4442857,7.88276316 L14.5835714,7.88276316 L12.6985714,2.72434211 L13.6614286,2.72434211"></path>
          <path d="M17.9375,7.88276316 L18.8389286,7.88276316 L18.8389286,2.72434211 L17.9375,2.72434211 L17.9375,7.88276316 Z M18.9414286,1.27486842 C18.9514286,1.59496053 18.7264286,1.85075 18.3675,1.85075 C18.05,1.85075 17.8246429,1.59496053 17.8246429,1.27486842 C17.8246429,0.944828947 18.0603571,0.689039474 18.3882143,0.689039474 C18.7264286,0.689039474 18.9414286,0.944828947 18.9414286,1.27486842 Z"></path>
          <path d="M23.5096429,7.69092105 C23.2739286,7.81881579 22.7517857,7.98934211 22.0857143,7.98934211 C20.59,7.98934211 19.6167857,6.93421053 19.6167857,5.35719737 C19.6167857,3.76917105 20.6617857,2.61811842 22.2803571,2.61811842 C22.8132143,2.61811842 23.2842857,2.75631579 23.5303571,2.88456579 L23.3253571,3.60930263 C23.11,3.48105263 22.7721429,3.36381579 22.2803571,3.36381579 C21.1432143,3.36381579 20.5282143,4.23776316 20.5282143,5.31456579 C20.5282143,6.50789474 21.2660714,7.24328947 22.2496429,7.24328947 C22.7617857,7.24328947 23.1,7.10509211 23.3560714,6.9875 L23.5096429,7.69092105"></path>
          <path d="M27.2385714,4.80263158 C27.2485714,4.20578947 27.0028571,3.27890789 25.9885714,3.27890789 C25.0767857,3.27890789 24.6771429,4.1525 24.6053571,4.80263158 L27.2385714,4.80263158 Z M24.595,5.47443421 C24.6157143,6.74236842 25.3942857,7.26460526 26.2957143,7.26460526 C26.9414286,7.26460526 27.3307143,7.14736842 27.6689286,6.99815789 L27.8225,7.66960526 C27.505,7.81881579 26.9617857,7.98934211 26.1728571,7.98934211 C24.6464286,7.98934211 23.7346429,6.94486842 23.7346429,5.38881579 C23.7346429,3.83311842 24.6157143,2.60710526 26.0603571,2.60710526 C27.6789286,2.60710526 28.1092857,4.08855263 28.1092857,5.03710526 C28.1092857,5.22894737 28.0885714,5.37815789 28.0785714,5.47443421 L24.595,5.47443421 Z"></path>
          <path d="M28.7367857,6.92355263 C29.0028571,7.10509211 29.4742857,7.29657895 29.9253571,7.29657895 C30.5807143,7.29657895 30.8882143,6.95552632 30.8882143,6.52921053 C30.8882143,6.08193421 30.6321429,5.83644737 29.9660714,5.58101316 C29.0746429,5.25026316 28.6546429,4.73868421 28.6546429,4.12052632 C28.6546429,3.28921053 29.3003571,2.60710526 30.3657143,2.60710526 C30.8678571,2.60710526 31.3082143,2.75631579 31.585,2.92719737 L31.3596429,3.60930263 C31.165,3.48105263 30.8060714,3.31088158 30.3453571,3.31088158 C29.8125,3.31088158 29.5153571,3.63026316 29.5153571,4.01394737 C29.5153571,4.44061842 29.8125,4.63246053 30.4578571,4.88789474 C31.3185714,5.22894737 31.7589286,5.67657895 31.7589286,6.44394737 C31.7589286,7.34986842 31.0828571,7.98934211 29.9046429,7.98934211 C29.3617857,7.98934211 28.8596429,7.85078947 28.5114286,7.63763158 L28.7367857,6.92355263"></path>
      </g>
      <g id="Health" transform="translate(127.000000, 34.000000)">
          <polyline points="1.67392857 1.33127632 1.67392857 4.33644737 5.01392857 4.33644737 5.01392857 1.33127632 5.91535714 1.33127632 5.91535714 8.51434211 5.01392857 8.51434211 5.01392857 5.14680263 1.67392857 5.14680263 1.67392857 8.51434211 0.7825 8.51434211 0.7825 1.33127632 1.67392857 1.33127632"></polyline>
          <path d="M10.2992857,5.43421053 C10.3092857,4.83736842 10.0632143,3.91048684 9.04928571,3.91048684 C8.13714286,3.91048684 7.73785714,4.78407895 7.66571429,5.43421053 L10.2992857,5.43421053 Z M7.65571429,6.10601316 C7.67642857,7.37394737 8.45464286,7.89618421 9.35642857,7.89618421 C10.0017857,7.89618421 10.3910714,7.77894737 10.7292857,7.62973684 L10.8828571,8.30118421 C10.5653571,8.45039474 10.0221429,8.62092105 9.23321429,8.62092105 C7.70714286,8.62092105 6.795,7.57644737 6.795,6.02039474 C6.795,4.46469737 7.67642857,3.23868421 9.12071429,3.23868421 C10.7396429,3.23868421 11.1696429,4.72013158 11.1696429,5.66868421 C11.1696429,5.86052632 11.1492857,6.00973684 11.1389286,6.10601316 L7.65571429,6.10601316 Z"></path>
          <path d="M14.5325,5.88184211 C13.5489286,5.86052632 12.4321429,6.04171053 12.4321429,7.04355263 C12.4321429,7.65105263 12.8214286,7.93881579 13.2825,7.93881579 C13.9282143,7.93881579 14.3378571,7.5125 14.4810714,7.07552632 C14.5117857,6.97960526 14.5325,6.87302632 14.5325,6.77710526 L14.5325,5.88184211 Z M14.6657143,8.51434211 L14.5939286,7.86421053 L14.5632143,7.86421053 C14.2867857,8.26921053 13.7539286,8.63157895 13.0471429,8.63157895 C12.0428571,8.63157895 11.5307143,7.89618421 11.5307143,7.15013158 C11.5307143,5.90315789 12.5960714,5.22105263 14.5117857,5.23206579 L14.5117857,5.12513158 C14.5117857,4.69917105 14.3992857,3.93180263 13.385,3.93180263 C12.9239286,3.93180263 12.4425,4.08101316 12.0942857,4.31548684 L11.8892857,3.69697368 C12.2989286,3.41986842 12.8932143,3.23868421 13.5182143,3.23868421 C15.0342857,3.23868421 15.4032143,4.31548684 15.4032143,5.34930263 L15.4032143,7.27838158 C15.4032143,7.72565789 15.4239286,8.16263158 15.4853571,8.51434211 L14.6657143,8.51434211 Z"></path>
          <polygon points="16.4878571 8.51434211 17.3892857 8.51434211 17.3892857 0.947592105 16.4878571 0.947592105"></polygon>
          <path d="M19.625,1.87482895 L19.625,3.35592105 L20.9157143,3.35592105 L20.9157143,4.07 L19.625,4.07 L19.625,6.85171053 C19.625,7.49118421 19.7989286,7.85355263 20.3010714,7.85355263 C20.5371429,7.85355263 20.7110714,7.82157895 20.8235714,7.78960526 L20.8646429,8.49302632 C20.6903571,8.56763158 20.4139286,8.62092105 20.0653571,8.62092105 C19.6453571,8.62092105 19.3071429,8.48236842 19.0925,8.22657895 C18.8360714,7.94947368 18.7439286,7.49118421 18.7439286,6.88368421 L18.7439286,4.07 L17.9757143,4.07 L17.9757143,3.35592105 L18.7439286,3.35592105 L18.7439286,2.11996053 L19.625,1.87482895"></path>
          <path d="M21.5367857,0.947592105 L22.4385714,0.947592105 L22.4385714,4.16627632 L22.4589286,4.16627632 C22.6025,3.89982895 22.8282143,3.66535526 23.1046429,3.50513158 C23.3710714,3.34526316 23.6885714,3.23868421 24.0267857,3.23868421 C24.6925,3.23868421 25.7582143,3.66535526 25.7582143,5.44486842 L25.7582143,8.51434211 L24.8564286,8.51434211 L24.8564286,5.55144737 C24.8564286,4.72013158 24.5592857,4.01706579 23.7089286,4.01706579 C23.125,4.01706579 22.6642857,4.44302632 22.5003571,4.95460526 C22.4489286,5.08285526 22.4385714,5.22105263 22.4385714,5.40223684 L22.4385714,8.51434211 L21.5367857,8.51434211 L21.5367857,0.947592105"></path>
      </g>
      <g id="Mental" transform="translate(97.000000, 34.000000)">
          <path d="M6.75285714,5.35960526 C6.70178571,4.35811842 6.64,3.15342105 6.65071429,2.25851316 L6.62,2.25851316 C6.38428571,3.10048684 6.09714286,3.99539474 5.74892857,4.98657895 L4.52964286,8.47171053 L3.85357143,8.47171053 L2.73714286,5.05052632 C2.40928571,4.03802632 2.13214286,3.11114474 1.9375,2.25851316 L1.9175,2.25851316 C1.89678571,3.15342105 1.84571429,4.35811842 1.78428571,5.43421053 L1.59964286,8.51434211 L0.749285714,8.51434211 L1.23071429,1.33127632 L2.36785714,1.33127632 L3.54607143,4.80575 C3.83321429,5.69035526 4.06857143,6.47903947 4.24285714,7.22473684 L4.27357143,7.22473684 C4.44785714,6.5 4.69357143,5.71131579 5.00107143,4.80575 L6.23035714,1.33127632 L7.3675,1.33127632 L7.79821429,8.51434211 L6.92714286,8.51434211 L6.75285714,5.35960526"></path>
          <path d="M12.0107143,5.43421053 C12.0210714,4.83736842 11.775,3.91048684 10.7607143,3.91048684 C9.84892857,3.91048684 9.44964286,4.78407895 9.3775,5.43421053 L12.0107143,5.43421053 Z M9.3675,6.10601316 C9.38821429,7.37394737 10.1664286,7.89618421 11.0682143,7.89618421 C11.7135714,7.89618421 12.1028571,7.77894737 12.4410714,7.62973684 L12.5946429,8.30118421 C12.2771429,8.45039474 11.7339286,8.62092105 10.945,8.62092105 C9.41892857,8.62092105 8.50678571,7.57644737 8.50678571,6.02039474 C8.50678571,4.46469737 9.38821429,3.23868421 10.8325,3.23868421 C12.4514286,3.23868421 12.8814286,4.72013158 12.8814286,5.66868421 C12.8814286,5.86052632 12.8610714,6.00973684 12.8507143,6.10601316 L9.3675,6.10601316 Z"></path>
          <path d="M13.6632143,4.75210526 C13.6632143,4.21921053 13.6532143,3.78259211 13.6225,3.35592105 L14.4214286,3.35592105 L14.4728571,4.20890789 L14.4935714,4.20890789 C14.7392857,3.71864474 15.3132143,3.23868421 16.1325,3.23868421 C16.8189286,3.23868421 17.8846429,3.66535526 17.8846429,5.43421053 L17.8846429,8.51434211 L16.9828571,8.51434211 L16.9828571,5.54078947 C16.9828571,4.70947368 16.6857143,4.01706579 15.8353571,4.01706579 C15.2410714,4.01706579 14.78,4.45368421 14.6267857,4.97592105 C14.5853571,5.09315789 14.565,5.25302632 14.565,5.41325 L14.565,8.51434211 L13.6632143,8.51434211 L13.6632143,4.75210526"></path>
          <path d="M20.0007143,1.87482895 L20.0007143,3.35592105 L21.2914286,3.35592105 L21.2914286,4.07 L20.0007143,4.07 L20.0007143,6.85171053 C20.0007143,7.49118421 20.175,7.85355263 20.6767857,7.85355263 C20.9121429,7.85355263 21.0867857,7.82157895 21.1992857,7.78960526 L21.24,8.49302632 C21.0660714,8.56763158 20.7896429,8.62092105 20.4410714,8.62092105 C20.0210714,8.62092105 19.6832143,8.48236842 19.4678571,8.22657895 C19.2117857,7.94947368 19.1196429,7.49118421 19.1196429,6.88368421 L19.1196429,4.07 L18.3510714,4.07 L18.3510714,3.35592105 L19.1196429,3.35592105 L19.1196429,2.11996053 L20.0007143,1.87482895"></path>
          <path d="M24.6367857,5.88184211 C23.6532143,5.86052632 22.5364286,6.04171053 22.5364286,7.04355263 C22.5364286,7.65105263 22.9257143,7.93881579 23.3867857,7.93881579 C24.0325,7.93881579 24.4421429,7.5125 24.5853571,7.07552632 C24.6160714,6.97960526 24.6367857,6.87302632 24.6367857,6.77710526 L24.6367857,5.88184211 Z M24.77,8.51434211 L24.6982143,7.86421053 L24.6675,7.86421053 C24.3910714,8.26921053 23.8578571,8.63157895 23.1514286,8.63157895 C22.1471429,8.63157895 21.635,7.89618421 21.635,7.15013158 C21.635,5.90315789 22.7003571,5.22105263 24.6160714,5.23206579 L24.6160714,5.12513158 C24.6160714,4.69917105 24.5035714,3.93180263 23.4892857,3.93180263 C23.0282143,3.93180263 22.5464286,4.08101316 22.1985714,4.31548684 L21.9935714,3.69697368 C22.4032143,3.41986842 22.9975,3.23868421 23.6225,3.23868421 C25.1385714,3.23868421 25.5075,4.31548684 25.5075,5.34930263 L25.5075,7.27838158 C25.5075,7.72565789 25.5282143,8.16263158 25.5896429,8.51434211 L24.77,8.51434211 Z"></path>
          <polygon points="26.5921429 8.51434211 27.4935714 8.51434211 27.4935714 0.947592105 26.5921429 0.947592105"></polygon>
      </g>
      <g id="and" transform="translate(80.000000, 34.000000)">
          <path d="M3.07464286,5.88184211 C2.09107143,5.86052632 0.974642857,6.04171053 0.974642857,7.04355263 C0.974642857,7.65105263 1.36357143,7.93881579 1.82464286,7.93881579 C2.47035714,7.93881579 2.88,7.5125 3.02357143,7.07552632 C3.05428571,6.97960526 3.07464286,6.87302632 3.07464286,6.77710526 L3.07464286,5.88184211 Z M3.20785714,8.51434211 L3.13607143,7.86421053 L3.10535714,7.86421053 C2.82892857,8.26921053 2.29642857,8.63157895 1.58928571,8.63157895 C0.585357143,8.63157895 0.0728571429,7.89618421 0.0728571429,7.15013158 C0.0728571429,5.90315789 1.13857143,5.22105263 3.05428571,5.23206579 L3.05428571,5.12513158 C3.05428571,4.69917105 2.94142857,3.93180263 1.92714286,3.93180263 C1.46607143,3.93180263 0.985,4.08101316 0.636428571,4.31548684 L0.431428571,3.69697368 C0.841071429,3.41986842 1.43571429,3.23868421 2.06071429,3.23868421 C3.57678571,3.23868421 3.94571429,4.31548684 3.94571429,5.34930263 L3.94571429,7.27838158 C3.94571429,7.72565789 3.96607143,8.16263158 4.0275,8.51434211 L3.20785714,8.51434211 Z"></path>
          <path d="M5.02357143,4.75210526 C5.02357143,4.21921053 5.01357143,3.78259211 4.98285714,3.35592105 L5.78178571,3.35592105 L5.83321429,4.20890789 L5.85392857,4.20890789 C6.09964286,3.71864474 6.67357143,3.23868421 7.49285714,3.23868421 C8.17928571,3.23868421 9.245,3.66535526 9.245,5.43421053 L9.245,8.51434211 L8.34321429,8.51434211 L8.34321429,5.54078947 C8.34321429,4.70947368 8.04607143,4.01706579 7.19571429,4.01706579 C6.60142857,4.01706579 6.14035714,4.45368421 5.98714286,4.97592105 C5.94571429,5.09315789 5.92535714,5.25302632 5.92535714,5.41325 L5.92535714,8.51434211 L5.02357143,8.51434211 L5.02357143,4.75210526"></path>
          <path d="M13.7632143,5.45588158 C13.7632143,5.33864474 13.7532143,5.17842105 13.7225,5.06118421 C13.5892857,4.46469737 13.0975,3.97443421 12.4210714,3.97443421 C11.4889286,3.97443421 10.9357143,4.82671053 10.9357143,5.96710526 C10.9357143,7.01193421 11.4275,7.87486842 12.4007143,7.87486842 C13.005,7.87486842 13.5585714,7.45921053 13.7225,6.75578947 C13.7532143,6.62789474 13.7632143,6.5 13.7632143,6.35078947 L13.7632143,5.45588158 Z M14.665,0.947592105 L14.665,7.18210526 C14.665,7.64039474 14.675,8.16263158 14.7060714,8.51434211 L13.8964286,8.51434211 L13.8553571,7.61907895 L13.835,7.61907895 C13.5585714,8.19460526 12.9539286,8.63157895 12.1446429,8.63157895 C10.9457143,8.63157895 10.0235714,7.57644737 10.0235714,6.00973684 C10.0135714,4.29381579 11.0378571,3.23868421 12.2471429,3.23868421 C13.005,3.23868421 13.5175,3.61171053 13.7425,4.02736842 L13.7632143,4.02736842 L13.7632143,0.947592105 L14.665,0.947592105 Z"></path>
      </g>
      <g id="Abuse" transform="translate(52.000000, 34.000000)">
          <path d="M4.58357143,5.53048684 L3.90714286,3.4625 C3.75357143,2.99390789 3.65107143,2.56759211 3.54857143,2.15193421 L3.52821429,2.15193421 C3.42571429,2.57825 3.31285714,3.01522368 3.17964286,3.45219737 L2.50357143,5.53048684 L4.58357143,5.53048684 Z M2.31928571,6.25522368 L1.60178571,8.51434211 L0.68,8.51434211 L3.02607143,1.33127632 L4.10178571,1.33127632 L6.45821429,8.51434211 L5.50535714,8.51434211 L4.76785714,6.25522368 L2.31928571,6.25522368 Z"></path>
          <path d="M7.97928571,6.44706579 C7.97928571,6.56394737 7.99964286,6.68118421 8.02035714,6.78811842 C8.19428571,7.43789474 8.71678571,7.88552632 9.3725,7.88552632 C10.315,7.88552632 10.8785714,7.08618421 10.8785714,5.90315789 C10.8785714,4.86934211 10.3664286,3.98509211 9.40321429,3.98509211 C8.78857143,3.98509211 8.215,4.42171053 8.03035714,5.13578947 C8.01,5.24236842 7.97928571,5.37026316 7.97928571,5.51947368 L7.97928571,6.44706579 Z M7.04714286,8.51434211 C7.0675,8.16263158 7.08785714,7.64039474 7.08785714,7.18210526 L7.08785714,0.947592105 L7.97928571,0.947592105 L7.97928571,4.18723684 L7.99964286,4.18723684 C8.3175,3.61171053 8.89107143,3.23868421 9.69,3.23868421 C10.9196429,3.23868421 11.7903571,4.30447368 11.78,5.87153947 C11.78,7.715 10.6635714,8.63157895 9.55678571,8.63157895 C8.84,8.63157895 8.26607143,8.34381579 7.89714286,7.66171053 L7.86642857,7.66171053 L7.82571429,8.51434211 L7.04714286,8.51434211 Z"></path>
          <path d="M16.7392857,7.1075 C16.7392857,7.64039474 16.7496429,8.10934211 16.7803571,8.51434211 L15.9810714,8.51434211 L15.93,7.67236842 L15.9092857,7.67236842 C15.6735714,8.08802632 15.1510714,8.63157895 14.2703571,8.63157895 C13.4914286,8.63157895 12.5592857,8.18394737 12.5592857,6.37246053 L12.5592857,3.35592105 L13.4607143,3.35592105 L13.4607143,6.21259211 C13.4607143,7.19276316 13.7478571,7.85355263 14.5675,7.85355263 C15.1717857,7.85355263 15.5917857,7.41657895 15.7557143,7.00092105 C15.8067857,6.86272368 15.8375,6.69184211 15.8375,6.52167105 L15.8375,3.35592105 L16.7392857,3.35592105 L16.7392857,7.1075"></path>
          <path d="M17.7214286,7.55513158 C17.9875,7.73667105 18.4589286,7.92815789 18.9096429,7.92815789 C19.5653571,7.92815789 19.8728571,7.58710526 19.8728571,7.16078947 C19.8728571,6.71351316 19.6164286,6.46802632 18.9507143,6.21259211 C18.0592857,5.88184211 17.6392857,5.37026316 17.6392857,4.75210526 C17.6392857,3.92078947 18.2846429,3.23868421 19.3503571,3.23868421 C19.8525,3.23868421 20.2928571,3.38789474 20.5692857,3.55877632 L20.3439286,4.24088158 C20.1496429,4.11263158 19.7907143,3.94246053 19.33,3.94246053 C18.7967857,3.94246053 18.5,4.26184211 18.5,4.64552632 C18.5,5.07219737 18.7967857,5.26403947 19.4425,5.51947368 C20.3032143,5.86052632 20.7435714,6.30815789 20.7435714,7.07552632 C20.7435714,7.98144737 20.0675,8.62092105 18.8892857,8.62092105 C18.3464286,8.62092105 17.8442857,8.48236842 17.4957143,8.26921053 L17.7214286,7.55513158"></path>
          <path d="M24.7325,5.43421053 C24.7425,4.83736842 24.4967857,3.91048684 23.4825,3.91048684 C22.5707143,3.91048684 22.1710714,4.78407895 22.0992857,5.43421053 L24.7325,5.43421053 Z M22.0889286,6.10601316 C22.1096429,7.37394737 22.8882143,7.89618421 23.7896429,7.89618421 C24.4353571,7.89618421 24.8246429,7.77894737 25.1628571,7.62973684 L25.3164286,8.30118421 C24.9989286,8.45039474 24.4557143,8.62092105 23.6667857,8.62092105 C22.1403571,8.62092105 21.2285714,7.57644737 21.2285714,6.02039474 C21.2285714,4.46469737 22.1096429,3.23868421 23.5542857,3.23868421 C25.1728571,3.23868421 25.6032143,4.72013158 25.6032143,5.66868421 C25.6032143,5.86052632 25.5825,6.00973684 25.5725,6.10601316 L22.0889286,6.10601316 Z"></path>
      </g>
      <g id="Substance" transform="translate(9.000000, 34.000000)">
          <path d="M0.917857143,7.38460526 C1.3175,7.64039474 1.90142857,7.85355263 2.51607143,7.85355263 C3.42785714,7.85355263 3.96071429,7.35263158 3.96071429,6.62789474 C3.96071429,5.95680263 3.59178571,5.57311842 2.65964286,5.19973684 C1.5325,4.78407895 0.835714286,4.17657895 0.835714286,3.16407895 C0.835714286,2.04535526 1.72714286,1.21403947 3.06928571,1.21403947 C3.77607143,1.21403947 4.28857143,1.38456579 4.59571429,1.56539474 L4.35,2.32210526 C4.12464286,2.19456579 3.66357143,1.98105263 3.03857143,1.98105263 C2.09607143,1.98105263 1.7375,2.56759211 1.7375,3.05785526 C1.7375,3.72894737 2.1575,4.05969737 3.11035714,4.44302632 C4.27821429,4.91197368 4.8725,5.49851316 4.8725,6.55328947 C4.8725,7.66171053 4.08357143,8.62092105 2.45464286,8.62092105 C1.78892857,8.62092105 1.06142857,8.41842105 0.6925,8.16263158 L0.917857143,7.38460526"></path>
          <path d="M9.79071429,7.1075 C9.79071429,7.64039474 9.80107143,8.10934211 9.83178571,8.51434211 L9.0325,8.51434211 L8.98142857,7.67236842 L8.96107143,7.67236842 C8.72535714,8.08802632 8.2025,8.63157895 7.32178571,8.63157895 C6.54285714,8.63157895 5.61071429,8.18394737 5.61071429,6.37246053 L5.61071429,3.35592105 L6.5125,3.35592105 L6.5125,6.21259211 C6.5125,7.19276316 6.79892857,7.85355263 7.61857143,7.85355263 C8.22321429,7.85355263 8.64321429,7.41657895 8.80714286,7.00092105 C8.85821429,6.86272368 8.88928571,6.69184211 8.88928571,6.52167105 L8.88928571,3.35592105 L9.79071429,3.35592105 L9.79071429,7.1075"></path>
          <path d="M11.8064286,6.44706579 C11.8064286,6.56394737 11.8267857,6.68118421 11.8475,6.78811842 C12.0214286,7.43789474 12.5439286,7.88552632 13.1996429,7.88552632 C14.1421429,7.88552632 14.7057143,7.08618421 14.7057143,5.90315789 C14.7057143,4.86934211 14.1935714,3.98509211 13.2303571,3.98509211 C12.6157143,3.98509211 12.0417857,4.42171053 11.8575,5.13578947 C11.8371429,5.24236842 11.8064286,5.37026316 11.8064286,5.51947368 L11.8064286,6.44706579 Z M10.8742857,8.51434211 C10.8946429,8.16263158 10.915,7.64039474 10.915,7.18210526 L10.915,0.947592105 L11.8064286,0.947592105 L11.8064286,4.18723684 L11.8267857,4.18723684 C12.1446429,3.61171053 12.7182143,3.23868421 13.5171429,3.23868421 C14.7467857,3.23868421 15.6175,4.30447368 15.6071429,5.87153947 C15.6071429,7.715 14.4903571,8.63157895 13.3842857,8.63157895 C12.6671429,8.63157895 12.0932143,8.34381579 11.7242857,7.66171053 L11.6935714,7.66171053 L11.6528571,8.51434211 L10.8742857,8.51434211 Z"></path>
          <path d="M16.24,7.55513158 C16.5060714,7.73667105 16.9775,7.92815789 17.4282143,7.92815789 C18.0839286,7.92815789 18.3914286,7.58710526 18.3914286,7.16078947 C18.3914286,6.71351316 18.1353571,6.46802632 17.4692857,6.21259211 C16.5778571,5.88184211 16.1578571,5.37026316 16.1578571,4.75210526 C16.1578571,3.92078947 16.8032143,3.23868421 17.8689286,3.23868421 C18.3710714,3.23868421 18.8114286,3.38789474 19.0878571,3.55877632 L18.8628571,4.24088158 C18.6682143,4.11263158 18.3092857,3.94246053 17.8485714,3.94246053 C17.3157143,3.94246053 17.0185714,4.26184211 17.0185714,4.64552632 C17.0185714,5.07219737 17.3157143,5.26403947 17.9610714,5.51947368 C18.8217857,5.86052632 19.2621429,6.30815789 19.2621429,7.07552632 C19.2621429,7.98144737 18.5860714,8.62092105 17.4078571,8.62092105 C16.865,8.62092105 16.3628571,8.48236842 16.0142857,8.26921053 L16.24,7.55513158"></path>
          <path d="M21.2396429,1.87482895 L21.2396429,3.35592105 L22.5307143,3.35592105 L22.5307143,4.07 L21.2396429,4.07 L21.2396429,6.85171053 C21.2396429,7.49118421 21.4139286,7.85355263 21.9160714,7.85355263 C22.1517857,7.85355263 22.3257143,7.82157895 22.4385714,7.78960526 L22.4796429,8.49302632 C22.3053571,8.56763158 22.0285714,8.62092105 21.6803571,8.62092105 C21.2603571,8.62092105 20.9221429,8.48236842 20.7071429,8.22657895 C20.4510714,7.94947368 20.3589286,7.49118421 20.3589286,6.88368421 L20.3589286,4.07 L19.5903571,4.07 L19.5903571,3.35592105 L20.3589286,3.35592105 L20.3589286,2.11996053 L21.2396429,1.87482895"></path>
          <path d="M25.8760714,5.88184211 C24.8925,5.86052632 23.7757143,6.04171053 23.7757143,7.04355263 C23.7757143,7.65105263 24.165,7.93881579 24.6260714,7.93881579 C25.2714286,7.93881579 25.6814286,7.5125 25.8246429,7.07552632 C25.8557143,6.97960526 25.8760714,6.87302632 25.8760714,6.77710526 L25.8760714,5.88184211 Z M26.0092857,8.51434211 L25.9375,7.86421053 L25.9067857,7.86421053 C25.63,8.26921053 25.0975,8.63157895 24.3903571,8.63157895 C23.3864286,8.63157895 22.8742857,7.89618421 22.8742857,7.15013158 C22.8742857,5.90315789 23.9396429,5.22105263 25.8557143,5.23206579 L25.8557143,5.12513158 C25.8557143,4.69917105 25.7428571,3.93180263 24.7285714,3.93180263 C24.2675,3.93180263 23.7860714,4.08101316 23.4375,4.31548684 L23.2328571,3.69697368 C23.6425,3.41986842 24.2367857,3.23868421 24.8617857,3.23868421 C26.3782143,3.23868421 26.7467857,4.31548684 26.7467857,5.34930263 L26.7467857,7.27838158 C26.7467857,7.72565789 26.7671429,8.16263158 26.8289286,8.51434211 L26.0092857,8.51434211 Z"></path>
          <path d="M27.825,4.75210526 C27.825,4.21921053 27.815,3.78259211 27.7842857,3.35592105 L28.5832143,3.35592105 L28.6342857,4.20890789 L28.655,4.20890789 C28.9007143,3.71864474 29.4746429,3.23868421 30.2939286,3.23868421 C30.9807143,3.23868421 32.0460714,3.66535526 32.0460714,5.43421053 L32.0460714,8.51434211 L31.1446429,8.51434211 L31.1446429,5.54078947 C31.1446429,4.70947368 30.8475,4.01706579 29.9971429,4.01706579 C29.4028571,4.01706579 28.9417857,4.45368421 28.7882143,4.97592105 C28.7471429,5.09315789 28.7267857,5.25302632 28.7267857,5.41325 L28.7267857,8.51434211 L27.825,8.51434211 L27.825,4.75210526"></path>
          <path d="M36.7132143,8.3225 C36.4775,8.45039474 35.9553571,8.62092105 35.2892857,8.62092105 C33.7935714,8.62092105 32.8203571,7.56578947 32.8203571,5.98877632 C32.8203571,4.40075 33.865,3.24969737 35.4839286,3.24969737 C36.0167857,3.24969737 36.4878571,3.38789474 36.7339286,3.51614474 L36.5289286,4.24088158 C36.3135714,4.11263158 35.9757143,3.99539474 35.4839286,3.99539474 C34.3467857,3.99539474 33.7317857,4.86934211 33.7317857,5.94614474 C33.7317857,7.13947368 34.4696429,7.87486842 35.4532143,7.87486842 C35.9653571,7.87486842 36.3035714,7.73667105 36.5596429,7.61907895 L36.7132143,8.3225"></path>
          <path d="M40.4421429,5.43421053 C40.4521429,4.83736842 40.2064286,3.91048684 39.1921429,3.91048684 C38.2803571,3.91048684 37.8807143,4.78407895 37.8089286,5.43421053 L40.4421429,5.43421053 Z M37.7985714,6.10601316 C37.8192857,7.37394737 38.5978571,7.89618421 39.4992857,7.89618421 C40.1446429,7.89618421 40.5342857,7.77894737 40.8725,7.62973684 L41.0260714,8.30118421 C40.7085714,8.45039474 40.1653571,8.62092105 39.3764286,8.62092105 C37.85,8.62092105 36.9382143,7.57644737 36.9382143,6.02039474 C36.9382143,4.46469737 37.8192857,3.23868421 39.2639286,3.23868421 C40.8825,3.23868421 41.3128571,4.72013158 41.3128571,5.66868421 C41.3128571,5.86052632 41.2921429,6.00973684 41.2821429,6.10601316 L37.7985714,6.10601316 Z"></path>
      </g>
      <g id="SAMHSA">
          <path d="M41.1664286,18.1425789 L34.1542857,18.1425789 L42.4528571,6.34571053 L41.1664286,18.1425789 Z M46.4946429,27.9815921 L49.4325,1.52088158 C49.4957143,0.937894737 49.3239286,0.238026316 48.3592857,0.238026316 L39.8967857,0.238026316 L39.6664286,0.70875 C41.035,0.960986842 39.9621429,2.61296053 39.3757143,3.39098684 L20.9171429,27.9506842 C19.9882143,29.1855789 20.2882143,29.9398026 21.1785714,29.9398026 L27.7592857,29.9398026 L27.9078571,29.4783158 C26.8146429,29.4783158 26.7603571,28.4981447 27.1346429,27.9815921 L31.0603571,22.5705789 L40.5878571,22.5705789 L40.0932143,27.9815921 C40.0253571,28.7137895 39.7239286,29.9398026 41.4785714,29.9398026 L47.1192857,29.9398026 L47.2660714,29.4783158 C46.555,29.4783158 46.4296429,28.5691974 46.4946429,27.9815921 Z"></path>
          <path d="M134.460714,18.2672763 C135.1225,15.3107763 133.747857,13.9160132 131.666786,13.0271447 C129.981429,12.3056053 125.814286,11.3137105 125.4325,10.0109605 C124.888214,8.15755263 126.460714,5.17227632 128.653214,5.17831579 C130.383214,5.18293421 132.291429,5.17831579 134.142143,5.17831579 C135.405357,5.17831579 137.169643,5.27814474 137.851429,3.38494737 L138.984643,0.238026316 L129.240714,0.238026316 C125.913571,0.238026316 122.579643,1.78519737 121.1325,3.95230263 C119.513571,6.37946053 118.166786,8.78494737 117.597857,10.9136842 C117.115357,12.7194868 117.666071,14.2943684 118.992857,15.4493289 C120.817143,17.0384211 126.003214,17.0320263 126.618214,19.3636184 C127.264643,21.8152895 124.803214,25.0254474 122.231786,25.0254474 L115.345,25.0254474 C113.732143,25.0254474 112.772143,24.71175 113.013571,23.1429079 L112.472143,23.1429079 L110.329286,28.5905132 C110.035357,29.3397632 110.227143,29.9398026 111.634286,29.9398026 L123.236786,29.9398026 C126.0075,29.9398026 128.441429,28.8505658 130.11,27.0849079 C132.48,24.5778158 133.76,21.3893289 134.460714,18.2672763"></path>
          <path d="M108.288214,27.9815921 L118.446429,1.50525 C118.661786,0.945710526 118.581071,0.238026316 117.617857,0.238026316 L111.184286,0.238026316 L110.946071,0.70875 C112.044286,0.918 111.351071,2.59590789 111.007857,3.47553947 L107.982143,11.2060658 L98.7882143,11.2060658 L102.51,1.50525 C102.725,0.945710526 102.644643,0.238026316 101.679643,0.238026316 L95.2475,0.238026316 L95.0092857,0.70875 C96.1057143,0.918 95.4128571,2.59590789 95.0696429,3.47553947 L85.4835714,27.9815921 C85.1632143,28.7997632 84.6035714,29.9398026 86.3585714,29.9398026 L92.9360714,29.9398026 L93.0921429,29.4783158 C92.3810714,29.4783158 92.1303571,28.5553421 92.35,27.9815921 L96.99,15.8877237 L106.151429,15.8877237 L101.42,27.9815921 C101.1,28.7997632 100.541786,29.9398026 102.296786,29.9398026 L108.872857,29.9398026 L109.028929,29.4783158 C108.3175,29.4783158 108.067143,28.5553421 108.288214,27.9815921"></path>
          <path d="M82.9371429,27.9815921 L86.405,1.52088158 C86.4835714,0.937894737 86.3246429,0.238026316 85.3596429,0.238026316 L77.9782143,0.238026316 L77.74,0.70875 C79.1021429,0.960986842 78.0307143,2.63285526 77.5607143,3.47553947 L69.3396429,18.1425789 L70.2021429,1.52088158 C70.2332143,0.941092105 70.1203571,0.238026316 69.1571429,0.238026316 L62.0942857,0.238026316 L61.8560714,0.70875 C63.2182143,0.960986842 62.3925,2.63569737 61.9178571,3.47553947 L49.2253571,27.9815921 C48.8153571,28.77525 48.3453571,29.9398026 50.1,29.9398026 L55.7314286,29.9398026 L55.8875,29.4783158 C55.1764286,29.4783158 54.8717857,28.5414868 55.1471429,27.9815921 L64.3607143,9.14482895 L62.8982143,29.9398026 L67.4778571,29.9398026 L79.3789286,9.15086842 L76.3546429,27.9815921 C76.2385714,28.7137895 75.9478571,29.9398026 77.7014286,29.9398026 L83.5210714,29.9398026 L83.6775,29.4783158 C82.9664286,29.4783158 82.8596429,28.5691974 82.9371429,27.9815921"></path>
          <path d="M151.502857,18.1425789 L144.490714,18.1425789 L152.790714,6.34571053 L151.502857,18.1425789 Z M156.8325,27.9815921 L159.77,1.52088158 C159.833571,0.937894737 159.662143,0.238026316 158.6975,0.238026316 L150.233214,0.238026316 L150.004643,0.70875 C151.371429,0.960986842 150.3,2.61296053 149.713929,3.39098684 L131.255357,27.9506842 C130.326071,29.1855789 130.626071,29.9398026 131.515,29.9398026 L138.0975,29.9398026 L138.245714,29.4783158 C137.1525,29.4783158 137.096786,28.4981447 137.471071,27.9815921 L141.398571,22.5705789 L150.924643,22.5705789 L150.429643,27.9815921 C150.363571,28.7137895 150.061786,29.9398026 151.816786,29.9398026 L157.457143,29.9398026 L157.604286,29.4783158 C156.892857,29.4783158 156.766071,28.5691974 156.8325,27.9815921 Z"></path>
          <path d="M24.2492857,18.2672763 C24.9110714,15.3107763 23.5364286,13.9160132 21.4571429,13.0271447 C19.77,12.3056053 15.6017857,11.3137105 15.2196429,10.0109605 C14.6767857,8.15755263 16.2496429,5.17227632 18.4403571,5.17831579 C20.1721429,5.18293421 22.0803571,5.17831579 23.9292857,5.17831579 C25.1942857,5.17831579 26.9582143,5.27814474 27.6403571,3.38494737 L28.7735714,0.238026316 L19.0278571,0.238026316 C15.7003571,0.238026316 12.3685714,1.78519737 10.9210714,3.95230263 C9.30071429,6.37946053 7.95392857,8.78494737 7.38678571,10.9136842 C6.90571429,12.7194868 7.45464286,14.2943684 8.78,15.4493289 C10.6057143,17.0384211 15.7932143,17.0320263 16.4071429,19.3636184 C17.0532143,21.8152895 14.5917857,25.0254474 12.0207143,25.0254474 L5.13357143,25.0254474 C3.52107143,25.0254474 2.56071429,24.71175 2.80214286,23.1429079 L2.26107143,23.1429079 L0.117857143,28.5905132 C-0.175714286,29.3397632 0.0157142857,29.9398026 1.42285714,29.9398026 L13.0257143,29.9398026 C15.7964286,29.9398026 18.2285714,28.8505658 19.8985714,27.0849079 C22.2685714,24.5778158 23.5489286,21.3893289 24.2492857,18.2672763"></path>
      </g>

</svg>
