<?xml version="1.0" encoding="UTF-8"?>
<svg width="647px" height="639px" viewBox="0 0 647 639" version="1.1" xmlns="http://www.w3.org/2000/svg" xmlns:xlink="http://www.w3.org/1999/xlink">
    <!-- Generator: Sketch 55.2 (78181) - https://sketchapp.com -->
    <title>Decision-Making</title>
    <desc>A cyclical movement in the head</desc>
    <g id="Icons---What-to-expect" stroke="none" stroke-width="1" fill="none" fill-rule="evenodd">
        <g id="addiction---w/-border-width">
            <g id="what-to-expect-addiction">
                <circle id="bg-icon" fill="#EEFBFF" cx="250" cy="250" r="250"></circle>
                <g id="icon-head" transform="translate(231.000000, 222.000000)" fill="#495568" fill-rule="nonzero">
                    <path d="M381.961849,263.242731 C400.777471,263.242731 416.009732,247.932271 416.009732,229.071393 C416.009732,223.936772 414.873775,218.945562 412.717567,214.398962 L373.888885,104.605026 C372.047487,99.3981939 366.333767,96.6699715 361.126935,98.5113701 C355.920104,100.352769 353.191881,106.066488 355.03328,111.27332 L394.252839,222.172522 L394.526121,222.720913 C395.497486,224.670145 396.009732,226.823149 396.009732,229.071393 C396.009732,236.909437 389.708785,243.242731 381.961849,243.242731 L346.335434,243.242731 L346.921103,253.7968 C346.967372,254.630606 346.990604,255.468303 346.990604,256.30934 L346.990604,301.307797 C346.990604,325.729266 327.314797,345.506083 303.069134,345.506083 L251.527981,345.506083 C246.005133,345.506083 241.527981,349.983235 241.527981,355.506083 C241.527981,361.02893 246.005133,365.506083 251.527981,365.506083 L303.069134,365.506083 C338.383482,365.506083 366.990604,336.752101 366.990604,301.307797 L366.990604,263.242731 L381.961849,263.242731 Z" id="Path"></path>
                    <path d="M36.4728028,266.10971 L36.4728028,354.240741 C36.4728028,388.902353 64.5783673,417 99.2469296,417 C104.769777,417 109.24693,412.522847 109.24693,407 C109.24693,401.477153 104.769777,397 99.2469296,397 C75.622801,397 56.4728028,377.855397 56.4728028,354.240741 L56.4728028,257.705676 L53.4238711,254.75768 C25.8459457,228.092731 10,191.516064 10,152.392694 C10,73.7519403 73.7678787,10 152.430793,10 L218.422173,10 C281.717916,10 336.893977,51.6475703 354.842234,111.32391 C356.4329,116.61273 362.009826,119.610677 367.298647,118.020012 C372.587468,116.429346 375.585415,110.85242 373.994749,105.563599 C353.52098,37.4901594 290.604466,-10 218.422173,-10 L152.430793,-10 C62.7233028,-10 -10,62.705126 -10,152.392694 C-10,195.531354 6.91924978,235.999919 36.4728028,266.10971 Z" id="Path"></path>
                    <path d="M253.013382,189.238443 C272.482427,189.238443 288.265207,173.455663 288.265207,153.986618 C288.265207,134.517573 272.482427,118.734793 253.013382,118.734793 C233.544337,118.734793 217.761557,134.517573 217.761557,153.986618 C217.761557,173.455663 233.544337,189.238443 253.013382,189.238443 Z M253.013382,169.238443 C244.590032,169.238443 237.761557,162.409968 237.761557,153.986618 C237.761557,145.563268 244.590032,138.734793 253.013382,138.734793 C261.436732,138.734793 268.265207,145.563268 268.265207,153.986618 C268.265207,162.409968 261.436732,169.238443 253.013382,169.238443 Z" id="Path"></path>
                </g>
                <path d="M319.643625,175.846154 C300.795328,158.124501 276.335108,148.410043 250.38569,148.433048 C203.685179,148.474217 163.368321,180.627707 152.23672,225.229701 C151.426404,228.476531 148.545681,230.769231 145.212169,230.769231 L110.663389,230.769231 C106.14274,230.769231 102.708542,226.648184 103.544784,222.186895 C116.590034,152.624929 177.411996,100 250.477333,100 C290.539761,100 326.921399,115.823077 353.765541,141.582799 L375.298614,119.96047 C384.414071,110.807229 400,117.289993 400,130.234936 L400,211.396011 C400,219.420762 393.521689,225.925926 385.530064,225.925926 L304.704019,225.925926 C291.812512,225.925926 285.356509,210.275392 294.471966,201.121546 L319.643625,175.846154 Z M114.469906,274.072908 L195.295787,274.072908 C208.187268,274.072908 214.643258,289.723587 205.52782,298.877518 L180.356212,324.153749 C199.204471,341.876171 223.66645,351.59072 249.616418,351.567109 C296.292717,351.524729 336.625772,319.392737 347.762776,274.77035 C348.573091,271.52349 351.453808,269.230769 354.787313,269.230769 L389.336625,269.230769 C393.857265,269.230769 397.291456,273.351854 396.455216,277.813185 C383.40939,347.374584 322.587551,400 249.522363,400 C209.460017,400 173.078452,384.176777 146.234365,358.416816 L124.701336,380.039345 C115.585898,389.192671 100,382.709847 100,369.764784 L100,288.602957 C100,280.578132 106.478298,274.072908 114.469906,274.072908 Z" id="icon-cycle" fill="#73CEF0" fill-rule="nonzero" transform="translate(250.000000, 250.000000) rotate(-45.000000) translate(-250.000000, -250.000000) "></path>
            </g>
        </g>
    </g>
</svg>