<?xml version="1.0" encoding="UTF-8"?>
<svg width="585px" height="640px" viewBox="0 0 585 640" version="1.1" xmlns="http://www.w3.org/2000/svg" xmlns:xlink="http://www.w3.org/1999/xlink">
    <title>Brain cannot function well</title>
    <desc>A tangled line/direction on top of the brain</desc>
    <g id="addiction---icon" stroke="none" stroke-width="1" fill="none" fill-rule="evenodd">
        <g id="what-to-expect-addiction" fill="#EEFBFF">
            <circle id="bg-icon" cx="250" cy="250" r="250"></circle>
        </g>
        <path d="M154.736324,515.371381 C188.356979,507.719638 203.756098,491.564129 203.756098,465.737236 C203.756098,460.214388 208.23325,455.737236 213.756098,455.737236 C219.278945,455.737236 223.756098,460.214388 223.756098,465.737236 C223.756098,500.793023 202.516355,523.918522 162.650879,534.032333 C162.591675,534.970427 162.561936,535.904933 162.561936,536.836596 C162.561936,562.358796 183.275876,583.010664 208.904841,583.010664 C211.180388,583.010664 213.619878,582.752245 216.533813,582.230798 L225.012319,580.713575 L227.769229,588.873628 C234.107809,607.634897 251.517042,620.460043 271.508068,620.460043 C276.939476,620.460043 282.150141,619.532526 286.989688,617.827698 C288.189179,582.126177 276.264896,562.689517 250.741242,556.325755 C245.382447,554.989657 242.121406,549.562374 243.457504,544.203579 C244.793602,538.844784 250.220885,535.583743 255.57968,536.919841 C287.199087,544.803444 304.375173,568.00173 306.773054,604.267127 C313.682998,596.203021 317.850972,585.734492 317.850972,574.285975 L317.850972,280.932505 C317.850972,258.921185 299.875924,241 277.76839,241 C259.381765,241 243.625834,253.461765 239.092455,271.095331 L237.161701,278.605418 L229.407397,278.605418 C228.592735,278.605418 228.069456,278.557068 227.304882,278.451154 C205.372165,278.655599 187.603227,296.497124 187.603227,318.381884 C187.603227,321.246208 187.956928,324.113331 188.645887,326.923356 L189.675078,331.121064 C198.786676,351.641948 210.161604,358.915513 225.642254,355.624999 C231.044414,354.476735 236.354582,357.925198 237.502847,363.327358 C238.651111,368.729518 235.202647,374.039687 229.800487,375.187951 C205.4783,380.357792 186.154596,369.030953 173.407886,343.506364 C159.067561,353.065475 150.041291,369.215268 150.041291,387.039079 C150.041291,394.804848 151.930275,402.436404 155.542528,409.921726 L159.590884,418.310742 L151.509849,422.943414 C135.194003,432.296913 125,449.301847 125,468.179401 C125,488.52701 136.778413,506.739023 154.736324,515.371381 Z M372.149028,432.569875 C372.714522,433.261401 373.196044,434.040806 373.571518,434.899447 C388.20295,468.358902 407.585928,480.946355 433.610625,475.414635 C439.012785,474.266371 444.322953,477.714834 445.471217,483.116994 C446.619482,488.519154 443.171018,493.829323 437.768858,494.977587 C411.343314,500.59451 389.22574,492.399464 372.149028,471.459825 L372.149028,574.285975 C372.149028,599.808175 392.862967,620.460043 418.491932,620.460043 C438.482958,620.460043 455.892191,607.634897 462.230771,588.873628 L464.987681,580.713575 L473.466187,582.230798 C476.380122,582.752245 478.819612,583.010664 481.095159,583.010664 C506.533521,583.010664 527.129692,562.66483 527.434633,537.405208 C506.54316,537.756901 490.033635,524.568636 479.116714,499.6036 C476.903951,494.54341 479.212247,488.647516 484.272438,486.434754 C489.332628,484.221991 495.228521,486.530287 497.441284,491.590478 C506.167823,511.546503 516.973557,519.226164 531.497812,517.016956 L532.528778,516.591628 C552.01627,508.552002 565,489.54277 565,468.179401 C565,449.301847 554.805997,432.296913 538.490151,422.943414 L530.346947,418.275102 L534.490968,409.852988 C538.087006,402.544569 539.958709,394.916498 539.958709,387.039079 C539.958709,365.612352 526.914467,346.604819 507.275081,338.558024 L499.471251,335.360581 L501.305966,327.129104 C502.029678,323.882161 502.396773,321.030448 502.396773,318.381884 C502.396773,296.486936 484.611287,278.638989 462.664485,278.45088 C462.402527,278.48664 462.282863,278.501598 462.057539,278.525455 C461.57983,278.576033 461.107201,278.605418 460.592603,278.605418 L454.780683,278.605418 C425.639459,297.330888 416.630579,317.818613 425.485002,342.14594 C427.373927,347.335719 424.698056,353.074143 419.508277,354.963068 C414.318498,356.851993 408.580074,354.176122 406.691149,348.986343 C394.063439,314.291994 408.101056,283.97514 446.366423,260.267425 C439.300931,248.573826 426.565692,241 412.23161,241 C390.094627,241 372.149028,258.872523 372.149028,280.932505 L372.149028,432.569875 Z M277.76839,221 C310.908205,221 337.850972,247.862031 337.850972,280.932505 L337.850972,574.285975 C337.850972,610.867328 308.169314,640.460043 271.508068,640.460043 C245.654035,640.460043 222.816258,625.507428 211.939632,602.921763 C210.922906,602.980715 209.914548,603.010664 208.904841,603.010664 C172.243595,603.010664 142.561936,573.417949 142.561936,536.836596 C142.561936,535.124916 142.630767,533.414103 142.766796,531.703212 C119.837861,519.200285 105,495.045489 105,468.179401 C105,445.039632 116.050719,423.932979 134.129958,410.465075 C131.451926,402.874167 130.041291,395.046668 130.041291,387.039079 C130.041291,360.161152 144.87598,336.049793 167.843763,323.523093 C167.684052,321.81592 167.603227,320.100482 167.603227,318.381884 C167.603227,287.175229 191.594639,261.496933 222.145395,258.70165 C231.110405,236.280892 252.83539,221 277.76839,221 Z M585,468.179401 C585,495.045489 570.162139,519.200285 547.233204,531.703212 C547.369233,533.414103 547.438064,535.124916 547.438064,536.836596 C547.438064,573.417949 517.756405,603.010664 481.095159,603.010664 C480.085452,603.010664 479.077094,602.980715 478.060368,602.921763 C467.183742,625.507428 444.345965,640.460043 418.491932,640.460043 C381.830686,640.460043 352.149028,610.867328 352.149028,574.285975 L352.149028,280.932505 C352.149028,247.808518 379.067159,221 412.23161,221 C437.16461,221 458.889595,236.280892 467.854605,258.70165 C498.405361,261.496933 522.396773,287.175229 522.396773,318.381884 C522.396773,320.083771 522.308831,321.787775 522.137926,323.51311 C545.116135,336.03698 559.958709,360.15401 559.958709,387.039079 C559.958709,395.097153 558.565083,402.945447 555.896626,410.484887 C573.960113,423.953673 585,445.050976 585,468.179401 Z" id="Combined-Shape" fill="#495568" fill-rule="nonzero"></path>
        <path d="M200.564894,232.448215 C206.642934,233.39391 212.703449,233.86601 218.749884,233.86601 C255.315559,233.86601 278.956965,201.310328 289.113677,132.628326 C290.91452,120.695432 293.978208,111.689025 298.652021,105.504414 C304.198802,98.1646525 312.025223,94.912969 320.918301,96.3880076 C335.183524,98.7540899 351.982048,113.322927 372.942101,140.052302 C393.590998,166.384874 404.695051,188.405485 405.966913,206.647048 C407.362854,226.668193 396.934344,241.641092 376.28063,250.216278 L375.675523,250.467511 L375.039063,250.623043 C360.289436,254.227414 348.211096,258.726122 338.79426,264.04451 C419.329879,289.537177 458.265667,319.447325 453.059894,356.194647 C450.073616,377.274646 440.041836,390.757183 423.192852,394.724083 C407.770235,398.355161 387.674752,393.607611 362.537921,381.103546 C319.051204,359.969216 296.463773,333.38895 296.463773,301.334696 C296.463773,290.475373 299.356467,280.596644 305.047543,271.865652 C301.880181,271.003519 298.656884,270.145733 295.377673,269.292311 L295.130796,269.22806 L294.888215,269.14912 C265.107329,259.457873 245.927439,269.97932 234.636524,303.338016 C264.176501,321.69464 283.183398,337.751939 291.845039,352.090712 C302.697106,370.055591 297.710843,386.380626 278.612273,396.986149 C252.697702,412.388737 232.840321,415.229394 219.989503,402.677852 C208.153169,391.11717 205.4952,368.414365 210.333094,334.09353 C211.496594,325.839466 212.946375,318.189485 214.686693,311.140711 C205.653363,305.819175 195.719254,300.284396 184.886037,294.538133 C180.175122,292.039322 175.61171,289.670638 171.196023,287.432129 C152.459819,317.046209 135.059378,333.125051 117.768526,335.161855 C97.7165897,337.523906 81.8772004,321.569737 69.4633086,290.152723 L69.3865567,289.951025 C64.7043025,277.160223 63.2738695,266.858321 65.5759143,258.703776 C68.2875313,249.098402 75.8831357,243.389926 86.669182,242.119364 C102.908667,240.206405 128.542716,247.999175 164.671711,265.264629 C168.378333,258.768521 172.16664,251.695844 176.03518,244.047803 C145.974184,234.467835 115.980873,214.8349 86.008769,185.29309 L79.823537,179.196656 L86.0514873,173.143869 C156.921694,104.266909 201.585706,71.4518699 225.007833,73.6075345 C233.148069,74.3567244 239.274112,79.0408619 242.298871,86.7284 C244.782843,93.0415086 245.18095,101.247325 243.814413,111.551232 C241.306762,130.45932 232.616067,157.623551 217.750736,193.357621 C211.885033,207.457907 206.1569,220.487561 200.564894,232.448215 Z M192.851026,248.520673 L192.816241,248.512214 C188.450352,257.269502 184.168509,265.349922 179.968825,272.755046 L180.071739,272.805798 L180.040755,272.857483 C184.189691,274.96957 188.460073,277.190419 192.852071,279.520067 C202.3717,284.569564 211.227461,289.468315 219.420408,294.217432 L219.450013,294.114483 L219.817104,294.33628 C234.436957,255.281293 261.96804,240.661075 299.901641,252.903434 C306.007045,254.494085 311.926728,256.100911 317.66081,257.724003 L317.673659,257.71184 L317.870573,257.768902 C330.195044,247.639275 347.694001,239.872648 370.341594,234.271702 C384.145667,228.378117 389.85635,219.995636 389.008085,207.829474 C388.023964,193.714816 378.305246,174.441484 359.564581,150.542391 C341.135074,127.040102 326.783011,114.593005 318.136622,113.158883 C315.573894,112.73382 314.004253,113.385966 312.214714,115.753968 C309.55221,119.27712 307.339322,125.782408 305.927061,135.140189 C294.69284,211.108842 265.821832,250.86601 218.749884,250.86601 C210.150023,250.86601 201.539299,250.032966 192.924329,248.369746 L192.851026,248.520673 Z M313.463773,301.334696 C313.463773,325.730371 331.736054,347.232688 370.038965,365.848114 C392.023796,376.783896 408.589343,380.6975 419.296919,378.176524 C428.578129,375.991369 434.145707,368.508642 436.227952,353.810167 C439.974755,327.361656 403.043996,300.784809 322.536967,276.839144 C316.429049,283.923196 313.463773,291.983602 313.463773,301.334696 Z M227.166675,336.466406 C223.033144,365.790369 225.161043,383.965623 231.867871,390.516258 C237.541127,396.057393 249.944286,394.269741 270.030956,382.310409 L270.149463,382.239851 L270.270197,382.173176 C281.265327,376.101085 283.027478,370.372285 277.293861,360.880662 C270.716374,349.992069 254.890577,336.365732 229.974572,320.490537 C228.901022,325.480911 227.964488,330.806584 227.166675,336.466406 Z M88.657977,259.002631 C84.3325248,259.512156 82.656543,260.77174 81.9364864,263.3224 C80.8107482,267.310107 81.7779532,274.317523 85.3138087,284.006622 C95.2057568,308.998393 105.622357,319.475093 115.779734,318.278588 C126.362323,317.031995 140.09263,304.391788 155.840054,279.890666 C123.328083,264.48661 100.587041,257.597425 88.657977,259.002631 Z M202.054709,186.828093 C216.394639,152.357011 224.694258,126.415151 226.961974,109.316208 C227.983121,101.616599 227.715175,96.0936641 226.479357,92.9527867 C225.784326,91.1863389 225.136842,90.6912555 223.449816,90.5359893 C216.398359,89.8870057 201.878739,96.8531433 181.45733,111.85693 C161.139794,126.784402 135.371774,149.251229 104.220946,179.221886 C131.086978,204.398188 157.557843,220.812027 183.59281,228.589677 C189.571278,215.962917 195.725878,202.041671 202.054709,186.828093 Z" id="Path-5" fill="#8ED7F2" fill-rule="nonzero" transform="translate(259.008696, 242.032808) rotate(-255.000000) translate(-259.008696, -242.032808) "></path>
    </g>
</svg>