<?xml version="1.0" encoding="UTF-8"?>
<svg role="img" aria-hidden="true"  viewBox="0 0 563 620" version="1.1" xmlns="http://www.w3.org/2000/svg" xmlns:xlink="http://www.w3.org/1999/xlink">
    <!-- Generator: Sketch 55.2 (78181) - https://sketchapp.com -->
    <title>Payment document</title>
    <desc>A billing statement with checkmark</desc>
    <g id="Icons---What-to-expect" stroke="none" stroke-width="1" fill="none" fill-rule="evenodd">
        <g id="payment---w/-border-width">
            <g id="what-to-expect-payment">
                <circle fill="#EEFBFF" cx="250" cy="250" r="250"></circle>
                <path d="M366.588542,155.240234 L304.891146,93.4160156 C302.055208,90.5771484 298.210937,89 294.177604,89 L290.333333,89 L290.333333,169.75 L371,169.75 L371,165.901758 C371,161.927344 369.424479,158.079102 366.588542,155.240234 Z M270.166667,174.796875 L270.166667,89 L144.125,89 C135.743229,89 129,95.7501953 129,104.140625 L129,396.859375 C129,405.249805 135.743229,412 144.125,412 L355.875,412 C364.256771,412 371,405.249805 371,396.859375 L371,189.9375 L285.291667,189.9375 C276.972917,189.9375 270.166667,183.124219 270.166667,174.796875 Z M169.333333,134.421875 C169.333333,131.633477 171.589479,129.375 174.375,129.375 L224.791667,129.375 C227.577187,129.375 229.833333,131.633477 229.833333,134.421875 L229.833333,144.515625 C229.833333,147.304023 227.577187,149.5625 224.791667,149.5625 L174.375,149.5625 C171.589479,149.5625 169.333333,147.304023 169.333333,144.515625 L169.333333,134.421875 Z M169.333333,184.890625 L169.333333,174.796875 C169.333333,172.008477 171.589479,169.75 174.375,169.75 L224.791667,169.75 C227.577187,169.75 229.833333,172.008477 229.833333,174.796875 L229.833333,184.890625 C229.833333,187.679023 227.577187,189.9375 224.791667,189.9375 L174.375,189.9375 C171.589479,189.9375 169.333333,187.679023 169.333333,184.890625 Z M260.083333,351.361797 L260.083333,366.578125 C260.083333,369.366523 257.827188,371.625 255.041667,371.625 L244.958333,371.625 C242.172813,371.625 239.916667,369.366523 239.916667,366.578125 L239.916667,351.254551 C232.801615,350.888652 225.881927,348.403066 220.147031,344.094297 C217.689219,342.245879 217.563177,338.56166 219.787813,336.435664 L227.19276,329.36373 C228.938438,327.698262 231.534896,327.622559 233.576771,328.903203 C236.015677,330.429883 238.782292,331.25 241.656042,331.25 L259.371198,331.25 C263.467552,331.25 266.807656,327.515313 266.807656,322.928965 C266.807656,319.175352 264.532604,315.869648 261.280729,314.898125 L232.921354,306.381523 C221.205781,302.861328 213.019375,291.606797 213.019375,279.008535 C213.019375,263.539863 225.024844,250.973145 239.910365,250.575703 L239.910365,235.359375 C239.910365,232.570977 242.16651,230.3125 244.952031,230.3125 L255.035365,230.3125 C257.820885,230.3125 260.077031,232.570977 260.077031,235.359375 L260.077031,250.682949 C267.192083,251.048848 274.111771,253.528125 279.846667,257.843203 C282.304479,259.691621 282.430521,263.37584 280.205885,265.501836 L272.800938,272.57377 C271.05526,274.239238 268.458802,274.314941 266.416927,273.034297 C263.978021,271.501309 261.211406,270.6875 258.337656,270.6875 L240.6225,270.6875 C236.526146,270.6875 233.186042,274.422188 233.186042,279.008535 C233.186042,282.762148 235.461094,286.067852 238.712969,287.039375 L267.072344,295.555977 C278.787917,299.076172 286.974323,310.330703 286.974323,322.928965 C286.974323,338.403945 274.968854,350.964355 260.083333,351.361797 Z" id="icon-payment" fill="#8ED7F2" fill-rule="nonzero"></path>
                <path d="M186.085225,390.044542 C173.545548,377.494256 153.20915,377.494256 140.669088,390.044927 L109.401801,421.336403 C96.8660928,433.882717 96.8660928,454.219742 109.401898,466.764899 L253.117039,610.587242 C265.419432,622.900044 285.276214,623.158329 297.889704,611.214189 C301.8999,607.416798 302.072412,601.087499 298.275022,597.077303 C294.477632,593.067107 288.148333,592.894594 284.138137,596.691985 C279.387981,601.190069 271.902848,601.092706 267.2648,596.450734 L123.549306,452.628037 C118.816839,447.89204 118.816839,440.209638 123.549659,435.472813 L154.816947,404.181338 C159.545413,399.448871 167.209285,399.448871 171.937496,404.181082 L268.751274,501.066213 L275.824963,508.145116 L490.262136,293.548878 C494.990442,288.817045 502.65486,288.817045 507.383151,293.548864 L538.650597,324.840497 C543.383161,329.576592 543.383161,337.258994 538.650341,341.995818 L331.375373,549.426106 C327.471593,553.332811 327.473964,559.664461 331.38067,563.568241 C335.287375,567.472021 341.619024,567.469649 345.522804,563.562944 L552.798114,356.132315 C565.333907,343.585915 565.333907,323.24889 552.798102,310.703733 L521.530656,279.412099 C508.990577,266.862666 488.654725,266.862666 476.114744,279.412002 L275.824929,479.850386 L186.085225,390.044542 Z" id="icon-checkmark" fill="#495568" fill-rule="nonzero"></path>
                <rect id="icon-payment-overlap" fill="#8ED7F2" x="321" y="362" width="50" height="50" rx="15"></rect>
            </g>
        </g>
    </g>
</svg>
