<?xml version="1.0" encoding="UTF-8"?>
<svg viewBox="0 0 674 640" version="1.1" xmlns="http://www.w3.org/2000/svg" xmlns:xlink="http://www.w3.org/1999/xlink">
    <!-- Generator: Sketch 55.2 (78181) - https://sketchapp.com -->
    <title>Treatment assistance</title>
    <desc>A hand receiving a treatment</desc>
    <g id="Icons---What-to-expect-treatment" stroke="none" stroke-width="1" fill="none" fill-rule="evenodd">
        <g id="treatment---w/-border-width">
            <g id="what-to-expect-treatment">
                <circle fill="#EEFBFF" cx="282" cy="250" r="250"></circle>
                <path d="M242,210 L242,110 C242,104.477153 246.477153,100 252,100 L312,100 C317.522847,100 322,104.477153 322,110 L322,210 L422,210 C427.522847,210 432,214.477153 432,220 L432,280 C432,285.522847 427.522847,290 422,290 L322,290 L322,390 C322,395.522847 317.522847,400 312,400 L252,400 C246.477153,400 242,395.522847 242,390 L242,290 L142,290 C136.477153,290 132,285.522847 132,280 L132,220 C132,214.477153 136.477153,210 142,210 L242,210 Z" fill="#8ED7F2"></path>
                <g id="icon-two-handed" transform="translate(0.000000, 363.000000)" fill="#495568" fill-rule="nonzero">
                    <path d="M58.6570796,49.6666667 L21.7137351,49.6666667 C9.61691408,49.6666667 0,59.8583564 0,72.0833333 L0,122 C0,127.522847 4.4771525,132 10,132 C15.5228475,132 20,127.522847 20,122 L20,72.0833333 C20,70.6528118 20.93053,69.6666667 21.7137351,69.6666667 L66.0683702,69.6666667 L102.934352,37.9951239 C116.433005,26.3421087 133.279449,20 150.642396,20 L267.857321,20 C275.97965,20 282.546479,28.1081154 281.092407,37.4928224 C280.026525,44.4680007 273.748945,49.6666667 266.61613,49.6666667 L209.288645,49.6666667 C197.191824,49.6666667 187.57491,59.8583564 187.57491,72.0833333 C187.57491,84.3083102 197.191824,94.5 209.288645,94.5 L295.939255,94.5 C309.045913,94.5 321.654007,89.8349435 331.742373,81.2518264 L399.374008,23.913597 C404.982264,19.1590136 412.605523,19.0663343 417.260533,23.5152373 C423.846042,29.8249155 423.477361,40.9049534 416.726665,46.5795894 L305.918896,140.507237 C299.369985,146.027368 291.335951,149 283.061904,149 L58,149 C52.4771525,149 48,153.477153 48,159 C48,164.522847 52.4771525,169 58,169 L283.061904,169 C296.083468,169 308.675473,164.340896 318.830012,155.781474 L429.627412,61.8625544 C445.448183,48.5637229 446.278195,23.6192262 431.087974,9.06526408 C418.749987,-2.72645322 399.594652,-2.49357339 386.440601,8.65820486 L318.795634,66.0077572 C312.300787,71.5335116 304.283357,74.5 295.939255,74.5 L209.288645,74.5 C208.50544,74.5 207.57491,73.5138549 207.57491,72.0833333 C207.57491,70.6528118 208.50544,69.6666667 209.288645,69.6666667 L266.61613,69.6666667 C283.479251,69.6666667 298.281249,57.4086563 300.859748,40.5345006 C304.149561,19.3018982 288.516795,0 267.857321,0 L150.642396,0 C128.45242,0 106.974836,8.0855745 89.8832539,22.8403137 L58.6570796,49.6666667 Z"></path>
                    <path d="M253.713735,157.666667 C241.616914,157.666667 232,167.858356 232,180.083333 L232,230 C232,235.522847 236.477153,240 242,240 C247.522847,240 252,235.522847 252,230 L252,180.083333 C252,178.652812 252.93053,177.666667 253.713735,177.666667 L298.06837,177.666667 L334.934352,145.995124 C348.433005,134.342109 365.279449,128 382.642396,128 L499.857321,128 C507.97965,128 514.546479,136.108115 513.092407,145.492822 C512.026525,152.468001 505.748945,157.666667 498.61613,157.666667 L441.288645,157.666667 C429.191824,157.666667 419.57491,167.858356 419.57491,180.083333 C419.57491,192.30831 429.191824,202.5 441.288645,202.5 L527.939255,202.5 C541.045913,202.5 553.654007,197.834943 563.742373,189.251826 L631.374008,131.913597 C636.982264,127.159014 644.605523,127.066334 649.260533,131.515237 C655.846042,137.824916 655.477361,148.904953 648.726665,154.579589 L537.918896,248.507237 C531.369985,254.027368 523.335951,257 515.061904,257 L290,257 C284.477153,257 280,261.477153 280,267 C280,272.522847 284.477153,277 290,277 L515.061904,277 C528.083468,277 540.675473,272.340896 550.830012,263.781474 L661.627412,169.862554 C677.448183,156.563723 678.278195,131.619226 663.087974,117.065264 C650.749987,105.273547 631.594652,105.506427 618.440601,116.658205 L550.795634,174.007757 C544.300787,179.533512 536.283357,182.5 527.939255,182.5 L441.288645,182.5 C440.50544,182.5 439.57491,181.513855 439.57491,180.083333 C439.57491,178.652812 440.50544,177.666667 441.288645,177.666667 L498.61613,177.666667 C515.479251,177.666667 530.281249,165.408656 532.859748,148.534501 C536.149561,127.301898 520.516795,108 499.857321,108 L382.642396,108 C360.45242,108 338.974836,116.085574 321.883254,130.840314 L290.65708,157.666667 L253.713735,157.666667 Z" transform="translate(453.001335, 192.500000) scale(-1, 1) translate(-453.001335, -192.500000) "></path>
                </g>
            </g>
        </g>
    </g>
</svg>
