<?xml version="1.0" encoding="UTF-8"?>
<svg viewBox="0 0 639 644" version="1.1" xmlns="http://www.w3.org/2000/svg" xmlns:xlink="http://www.w3.org/1999/xlink">
    <!-- Generator: Sketch 56.2 (81672) - https://sketch.com -->
    <title>Changes the brain</title>
    <desc>A cyclical movement in the head</desc>
    <g id="addiction---icon" stroke="none" stroke-width="1" fill="none" fill-rule="evenodd">
        <circle fill="#EEFBFF" cx="250" cy="250" r="250"></circle>
        <path d="M208.736324,519.048529 C242.356979,511.405178 257.756098,495.267387 257.756098,469.46882 C257.756098,463.95203 262.23325,459.479787 267.756098,459.479787 C273.278945,459.479787 277.756098,463.95203 277.756098,469.46882 C277.756098,504.486159 256.516355,527.586296 216.650879,537.689014 C216.591675,538.62608 216.561936,539.55956 216.561936,540.490201 C216.561936,565.98441 237.275876,586.613629 262.904841,586.613629 C265.180388,586.613629 267.619878,586.355493 270.533813,585.834618 L279.012319,584.319059 L281.769229,592.470162 C288.107809,611.210855 305.517042,624.021935 325.508068,624.021935 C330.931839,624.021935 336.135486,623.098038 340.96927,621.399657 C342.170142,585.716463 330.262774,566.291908 304.773221,559.936649 C299.420303,558.602017 296.164027,553.175922 297.500125,547.817126 C298.836222,542.458331 304.258741,539.196102 309.611659,540.530735 C341.204682,548.40776 358.357774,571.610251 360.736711,607.889094 C367.668381,599.828154 371.850972,589.354504 371.850972,577.898508 L371.850972,284.866774 C371.850972,262.879595 353.875924,244.978065 331.76839,244.978065 C313.381765,244.978065 297.625834,257.426163 293.092455,275.040389 L291.161701,282.542239 L283.407397,282.542239 C282.592735,282.542239 282.069456,282.493942 281.304882,282.388144 C259.372165,282.592366 241.603227,300.414322 241.603227,322.275081 C241.603227,325.136262 241.956928,328.000241 242.645887,330.807185 L243.648994,334.894019 C252.761802,355.479541 264.136228,362.779425 279.620797,359.488078 C285.017032,358.341073 290.322397,361.790557 291.470662,367.192717 C292.618926,372.594877 289.175266,377.904025 283.779031,379.05103 C259.481911,384.215542 240.175011,372.88309 227.43601,347.353301 C213.079362,356.899548 204.041291,373.041078 204.041291,390.856976 C204.041291,398.614227 205.930275,406.237413 209.542528,413.714526 L213.590884,422.094342 L205.509849,426.721932 C189.194003,436.065173 179,453.051456 179,471.908306 C179,492.233599 190.778413,510.425639 208.736324,519.048529 Z M426.149028,436.272995 C426.723902,436.971476 427.212959,437.760296 427.593245,438.630456 C442.216787,472.091589 461.582233,484.682769 487.578387,479.157115 C492.974622,478.01011 498.279988,481.459595 499.428252,486.861755 C500.576517,492.263915 497.132856,497.573062 491.736621,498.720067 C465.323877,504.334269 443.216777,496.121181 426.149028,475.150255 L426.149028,577.898508 C426.149028,603.392716 446.862967,624.021935 472.491932,624.021935 C492.482958,624.021935 509.892191,611.210855 516.230771,592.470162 L518.987681,584.319059 L527.466187,585.834618 C530.380122,586.355493 532.819612,586.613629 535.095159,586.613629 C560.523103,586.613629 581.112821,566.306752 581.434248,541.089189 C560.560081,541.440538 544.061439,528.248991 533.148676,503.278747 C530.937107,498.218303 533.241666,492.323204 538.296053,490.111675 C543.35044,487.900146 549.240661,490.209648 551.452231,495.270092 C560.17192,515.222214 570.964866,522.905049 585.467998,520.704586 L586.528778,520.267437 C606.01627,512.236629 619,493.248245 619,471.908306 C619,453.051456 608.805997,436.065173 592.490151,426.721932 L584.346947,422.058741 L588.490968,413.645864 C592.087006,406.34546 593.958709,398.725755 593.958709,390.856976 C593.958709,369.453749 580.914467,350.467062 561.275081,342.429092 L553.471251,339.235156 L555.305966,331.012706 C556.029678,327.769325 556.396773,324.92074 556.396773,322.275081 C556.396773,300.404145 538.611287,282.575773 516.664485,282.38787 C516.402527,282.423592 516.282863,282.438533 516.057539,282.462364 C515.57983,282.512886 515.107201,282.542239 514.592603,282.542239 L508.770991,282.542239 C479.640446,301.256878 470.630744,321.72469 479.47373,346.020594 C481.360583,351.204682 478.683033,356.938491 473.493254,358.827416 C468.303475,360.716341 462.566731,358.045084 460.679877,352.860997 C448.067708,318.209348 462.108751,287.920384 500.365935,264.223551 C493.300344,252.543236 480.565362,244.978065 466.23161,244.978065 C444.094627,244.978065 426.149028,262.830986 426.149028,284.866774 L426.149028,436.272995 Z M331.76839,225 C364.908205,225 391.850972,251.83257 391.850972,284.866774 L391.850972,577.898508 C391.850972,614.439741 362.169314,644 325.508068,644 C299.654035,644 276.816258,629.063784 265.939632,606.50289 C264.922906,606.561777 263.914548,606.591694 262.904841,606.591694 C226.243595,606.591694 196.561936,577.031434 196.561936,540.490201 C196.561936,538.7804 196.630767,537.071462 196.766796,535.362448 C173.837861,522.873234 159,498.744929 159,471.908306 C159,448.793917 170.050719,427.710412 188.129958,414.257279 C185.451926,406.674696 184.041291,398.855782 184.041291,390.856976 C184.041291,364.008527 198.87598,339.923612 221.843763,327.410651 C221.684052,325.70535 221.603227,323.991793 221.603227,322.275081 C221.603227,291.102651 245.594639,265.452518 276.145395,262.660301 C285.110405,240.264133 306.83539,225 331.76839,225 Z M639,471.908306 C639,498.744929 624.162139,522.873234 601.233204,535.362448 C601.369233,537.071462 601.438064,538.7804 601.438064,540.490201 C601.438064,577.031434 571.756405,606.591694 535.095159,606.591694 C534.085452,606.591694 533.077094,606.561777 532.060368,606.50289 C521.183742,629.063784 498.345965,644 472.491932,644 C435.830686,644 406.149028,614.439741 406.149028,577.898508 L406.149028,284.866774 C406.149028,251.779116 433.067159,225 466.23161,225 C491.16461,225 512.889595,240.264133 521.854605,262.660301 C552.405361,265.452518 576.396773,291.102651 576.396773,322.275081 C576.396773,323.975101 576.308831,325.677235 576.137926,327.400678 C599.116135,339.910813 613.958709,364.001392 613.958709,390.856976 C613.958709,398.906212 612.565083,406.745898 609.896626,414.277069 C627.960113,427.731083 639,448.805248 639,471.908306 Z" id="Combined-Shape" fill="#495568" fill-rule="nonzero"></path>
        <path d="M319.643625,175.846154 C300.795328,158.124501 276.335108,148.410043 250.38569,148.433048 C203.685179,148.474217 163.368321,180.627707 152.23672,225.229701 C151.426404,228.476531 148.545681,230.769231 145.212169,230.769231 L110.663389,230.769231 C106.14274,230.769231 102.708542,226.648184 103.544784,222.186895 C116.590034,152.624929 177.411996,100 250.477333,100 C290.539761,100 326.921399,115.823077 353.765541,141.582799 L375.298614,119.96047 C384.414071,110.807229 400,117.289993 400,130.234936 L400,211.396011 C400,219.420762 393.521689,225.925926 385.530064,225.925926 L304.704019,225.925926 C291.812512,225.925926 285.356509,210.275392 294.471966,201.121546 L319.643625,175.846154 Z M114.469906,274.072908 L195.295787,274.072908 C208.187268,274.072908 214.643258,289.723587 205.52782,298.877518 L180.356212,324.153749 C199.204471,341.876171 223.66645,351.59072 249.616418,351.567109 C296.292717,351.524729 336.625772,319.392737 347.762776,274.77035 C348.573091,271.52349 351.453808,269.230769 354.787313,269.230769 L389.336625,269.230769 C393.857265,269.230769 397.291456,273.351854 396.455216,277.813185 C383.40939,347.374584 322.587551,400 249.522363,400 C209.460017,400 173.078452,384.176777 146.234365,358.416816 L124.701336,380.039345 C115.585898,389.192671 100,382.709847 100,369.764784 L100,288.602957 C100,280.578132 106.478298,274.072908 114.469906,274.072908 Z" id="icon-cycle" fill="#8ED7F2" fill-rule="nonzero" transform="translate(250.000000, 250.000000) rotate(-45.000000) translate(-250.000000, -250.000000) "></path>
    </g>
</svg>
