<?xml version="1.0" encoding="UTF-8"?>
<svg viewBox="0 0 588 640" version="1.1" xmlns="http://www.w3.org/2000/svg" xmlns:xlink="http://www.w3.org/1999/xlink">
    <title>Mental health</title>
    <desc>A plant on head symbolizing health and growth</desc>
    <g id="mental-health---icon" stroke="none" stroke-width="1" fill="none" fill-rule="evenodd">
        <circle fill="#EEFBFF" transform="translate(250.000000, 250.000000) scale(-1, 1) translate(-250.000000, -250.000000) " cx="250" cy="250" r="250"></circle>
        <g id="icon-head" transform="translate(172.000000, 223.000000)" fill="#495568" fill-rule="nonzero">
            <path d="M381.961849,263.242731 C400.777471,263.242731 416.009732,247.932271 416.009732,229.071393 C416.009732,223.936772 414.873775,218.945562 412.717567,214.398962 L373.888885,104.605026 C372.047487,99.3981939 366.333767,96.6699715 361.126935,98.5113701 C355.920104,100.352769 353.191881,106.066488 355.03328,111.27332 L394.252839,222.172522 L394.526121,222.720913 C395.497486,224.670145 396.009732,226.823149 396.009732,229.071393 C396.009732,236.909437 389.708785,243.242731 381.961849,243.242731 L346.335434,243.242731 L346.921103,253.7968 C346.967372,254.630606 346.990604,255.468303 346.990604,256.30934 L346.990604,301.307797 C346.990604,325.729266 327.314797,345.506083 303.069134,345.506083 L251.527981,345.506083 C246.005133,345.506083 241.527981,349.983235 241.527981,355.506083 C241.527981,361.02893 246.005133,365.506083 251.527981,365.506083 L303.069134,365.506083 C338.383482,365.506083 366.990604,336.752101 366.990604,301.307797 L366.990604,263.242731 L381.961849,263.242731 Z"></path>
            <path d="M36.4728028,266.10971 L36.4728028,354.240741 C36.4728028,388.902353 64.5783673,417 99.2469296,417 C104.769777,417 109.24693,412.522847 109.24693,407 C109.24693,401.477153 104.769777,397 99.2469296,397 C75.622801,397 56.4728028,377.855397 56.4728028,354.240741 L56.4728028,257.705676 L53.4238711,254.75768 C25.8459457,228.092731 10,191.516064 10,152.392694 C10,73.7519403 73.7678787,10 152.430793,10 L218.422173,10 C281.717916,10 336.893977,51.6475703 354.842234,111.32391 C356.4329,116.61273 362.009826,119.610677 367.298647,118.020012 C372.587468,116.429346 375.585415,110.85242 373.994749,105.563599 C353.52098,37.4901594 290.604466,-10 218.422173,-10 L152.430793,-10 C62.7233028,-10 -10,62.705126 -10,152.392694 C-10,195.531354 6.91924978,235.999919 36.4728028,266.10971 Z"></path>
            <path d="M253.013382,189.238443 C272.482427,189.238443 288.265207,173.455663 288.265207,153.986618 C288.265207,134.517573 272.482427,118.734793 253.013382,118.734793 C233.544337,118.734793 217.761557,134.517573 217.761557,153.986618 C217.761557,173.455663 233.544337,189.238443 253.013382,189.238443 Z M253.013382,169.238443 C244.590032,169.238443 237.761557,162.409968 237.761557,153.986618 C237.761557,145.563268 244.590032,138.734793 253.013382,138.734793 C261.436732,138.734793 268.265207,145.563268 268.265207,153.986618 C268.265207,162.409968 261.436732,169.238443 253.013382,169.238443 Z"></path>
        </g>
        <g id="pagelines-brands" transform="translate(110.000000, 65.000000)" fill="#8ED7F2" fill-rule="nonzero">
            <path d="M277.735294,218.539417 C237.879355,317.3956 142.398701,257.590141 142.398701,257.590141 C113.103501,316.744755 64.7121696,354.783052 8.87045409,355 C-2.77529228,355 -3.13696142,337.354858 8.87045409,337.354858 C55.4534396,337.13791 96.0327173,306.475861 122.579232,257.734773 C92.8500288,269.233041 36.7913118,277.91098 5.68776564,198.290894 C84.5316386,165.820941 120.770887,206.390304 134.658982,231.194744 C141.820031,213.549603 146.955732,194.385822 150.283089,173.55877 C150.283089,173.55877 49.2327303,189.396007 42.1440151,102.616623 C128.293605,67.9771848 152.525437,158.083113 152.525437,158.083113 C153.682778,146.006315 154.912454,120.044816 154.912454,119.466286 C154.912454,119.466286 78.021594,66.1692809 127.353265,0 C217.481215,31.0959462 171.766236,117.441434 171.766236,117.441434 C172.127905,118.598493 172.127905,134.652679 171.766236,141.59503 C171.766236,141.59503 204.461126,77.2336525 270.429577,100.013241 C267.391557,196.916887 167.787875,176.957629 167.787875,176.957629 C164.605187,196.772255 159.686486,215.574455 153.321109,233.002648 C153.321109,233.002648 213.358187,166.616419 277.735294,218.539417 L277.735294,218.539417 Z"></path>
        </g>
    </g>
</svg>
